<svg width="151" height="150" viewBox="0 0 151 150" fill="none" xmlns="http://www.w3.org/2000/svg">
<path d="M96.5189 31.9251C87.2646 27.2809 76.7599 25.7432 66.5627 27.54C56.3655 29.3368 47.0191 34.3725 39.9095 41.9001M123.022 74.5688C122.971 66.953 121.11 59.4583 117.594 52.7026C114.077 45.9469 109.006 40.1236 102.797 35.7126M116.15 99.722C118.92 95.1268 120.896 90.0982 121.997 84.847M89.1126 120.913C97.2493 118.393 104.571 113.759 110.331 107.484M36.7095 45.6563C31.2493 52.7835 27.8918 61.2962 27.0167 70.2318C26.1417 79.1675 27.7839 88.1697 31.7577 96.2208C35.7316 104.272 41.8786 111.051 49.5037 115.791C57.1288 120.531 65.928 123.043 74.9064 123.044C77.329 123.045 79.7483 122.864 82.1439 122.503" stroke="#1A1938" stroke-opacity="0.6" stroke-width="0.5" stroke-linecap="round" stroke-linejoin="round"/>
<path d="M89.6219 64.0375C92.7785 64.0375 95.3375 61.4785 95.3375 58.3218C95.3375 55.1652 92.7785 52.6062 89.6219 52.6062C86.4652 52.6062 83.9062 55.1652 83.9062 58.3218C83.9062 61.4785 86.4652 64.0375 89.6219 64.0375Z" stroke="#1A1938" stroke-opacity="0.6" stroke-width="0.5" stroke-linecap="round" stroke-linejoin="round"/>
<path d="M61.4437 55.9C63.7719 55.9 65.6593 54.0126 65.6593 51.6844C65.6593 49.3561 63.7719 47.4688 61.4437 47.4688C59.1154 47.4688 57.228 49.3561 57.228 51.6844C57.228 54.0126 59.1154 55.9 61.4437 55.9Z" stroke="#1A1938" stroke-opacity="0.6" stroke-width="0.5" stroke-linecap="round" stroke-linejoin="round"/>
<path d="M60.6468 88.2999C63.4496 88.2999 65.7218 86.0277 65.7218 83.2249C65.7218 80.4221 63.4496 78.1499 60.6468 78.1499C57.8439 78.1499 55.5718 80.4221 55.5718 83.2249C55.5718 86.0277 57.8439 88.2999 60.6468 88.2999Z" stroke="#1A1938" stroke-opacity="0.6" stroke-width="0.5" stroke-linecap="round" stroke-linejoin="round"/>
<path d="M77.8655 98.4469C80.6684 98.4469 82.9405 96.1747 82.9405 93.3719C82.9405 90.569 80.6684 88.2969 77.8655 88.2969C75.0627 88.2969 72.7905 90.569 72.7905 93.3719C72.7905 96.1747 75.0627 98.4469 77.8655 98.4469Z" stroke="#1A1938" stroke-opacity="0.6" stroke-width="0.5" stroke-linecap="round" stroke-linejoin="round"/>
<path d="M106.713 91.1095C109.3 91.1095 111.397 89.0122 111.397 86.4251C111.397 83.838 109.3 81.7407 106.713 81.7407C104.126 81.7407 102.028 83.838 102.028 86.4251C102.028 89.0122 104.126 91.1095 106.713 91.1095Z" stroke="#1A1938" stroke-opacity="0.6" stroke-width="0.5" stroke-linecap="round" stroke-linejoin="round"/>
<path d="M121.769 84.8063C124.639 84.8063 126.966 82.4796 126.966 79.6095C126.966 76.7393 124.639 74.4126 121.769 74.4126C118.898 74.4126 116.572 76.7393 116.572 79.6095C116.572 82.4796 118.898 84.8063 121.769 84.8063Z" stroke="#1A1938" stroke-opacity="0.6" stroke-width="0.5" stroke-linecap="round" stroke-linejoin="round"/>
<path d="M19.7062 65.2187C20.5763 64.6987 21.2634 63.9212 21.6723 62.9937C22.0813 62.0662 22.192 61.0346 21.989 60.0414C21.7861 59.0483 21.2796 58.1428 20.5396 57.4501C19.7995 56.7574 18.8625 56.3117 17.8582 56.1747C16.8538 56.0378 15.8317 56.2163 14.9333 56.6856C14.0348 57.1548 13.3043 57.8917 12.8429 58.7942C12.3815 59.6968 12.2119 60.7204 12.3576 61.7235C12.5033 62.7266 12.9571 63.6597 13.6562 64.3937C14.1953 64.9527 14.8608 65.3739 15.5968 65.6218C15.6 66.1438 15.801 66.6452 16.1593 67.0249C16.3491 67.2253 16.5766 67.3861 16.8288 67.4983C17.081 67.6104 17.3528 67.6715 17.6287 67.6782C17.9046 67.6849 18.1791 67.637 18.4364 67.5372C18.6938 67.4374 18.9288 67.2877 19.1281 67.0968C19.3735 66.8562 19.555 66.5581 19.656 66.2296C19.7569 65.901 19.7742 65.5524 19.7062 65.2155M46.0312 135.219C47.0444 135.189 48.0232 134.844 48.8322 134.234C49.6413 133.623 50.2406 132.776 50.5474 131.81C50.8541 130.844 50.853 129.806 50.5444 128.841C50.2357 127.875 49.6347 127.03 48.8244 126.421C48.0141 125.812 47.0346 125.469 46.0214 125.441C45.0081 125.413 44.0112 125.701 43.1685 126.264C42.3257 126.827 41.6788 127.639 41.3172 128.585C40.9556 129.532 40.8971 130.568 41.1499 131.55C41.3475 132.301 41.7226 132.993 42.2437 133.569C42.102 133.821 42.0149 134.101 41.9878 134.39C41.9608 134.678 41.9945 134.969 42.0868 135.244C42.1791 135.519 42.3279 135.771 42.5236 135.985C42.7193 136.198 42.9576 136.369 43.2232 136.485C43.4887 136.601 43.7756 136.66 44.0654 136.658C44.3552 136.656 44.6414 136.594 44.9057 136.475C45.1699 136.356 45.4063 136.183 45.5996 135.967C45.7929 135.751 45.9389 135.497 46.0281 135.222M101.078 125.356C101.088 125.283 101.096 125.21 101.1 125.137C101.1 124.408 100.843 123.702 100.376 123.142C99.9085 122.582 99.2594 122.204 98.5418 122.073C97.8242 121.943 97.0835 122.068 96.4489 122.428C95.8142 122.787 95.3258 123.358 95.0687 124.041C94.2777 124.075 93.5052 124.291 92.8103 124.67C92.1155 125.05 91.5167 125.583 91.0599 126.23C90.6031 126.877 90.3004 127.619 90.1749 128.401C90.0494 129.183 90.1046 129.983 90.3361 130.74C90.5676 131.497 90.9694 132.191 91.5106 132.769C92.0518 133.347 92.7181 133.793 93.4585 134.074C94.1988 134.354 94.9936 134.462 95.7819 134.388C96.5701 134.314 97.331 134.06 98.0062 133.647C98.5583 133.887 99.1537 134.013 99.756 134.015C100.358 134.018 100.955 133.897 101.509 133.662C102.063 133.426 102.563 133.079 102.979 132.644C103.395 132.208 103.717 131.692 103.927 131.127C104.136 130.562 104.228 129.961 104.197 129.359C104.166 128.758 104.013 128.169 103.746 127.629C103.48 127.089 103.106 126.609 102.648 126.218C102.19 125.827 101.654 125.534 101.078 125.356ZM92.7781 15.603C92.7999 15.5343 92.8343 15.4687 92.8531 15.3999C93.0316 14.6923 92.956 13.9445 92.6396 13.2869C92.3231 12.6293 91.7859 12.1036 91.1216 11.8016C90.4572 11.4996 89.7079 11.4403 89.0044 11.6342C88.3008 11.828 87.6877 12.2627 87.2718 12.8624C86.4961 12.7026 85.6941 12.7225 84.9273 12.9206C84.1605 13.1187 83.4492 13.4897 82.848 14.0053C82.2468 14.5208 81.7716 15.1672 81.4589 15.8948C81.1462 16.6224 81.0042 17.412 81.0439 18.203C81.0835 18.994 81.3038 19.7654 81.6878 20.4581C82.0717 21.1508 82.6092 21.7464 83.259 22.1992C83.9088 22.652 84.6536 22.95 85.4364 23.0704C86.2192 23.1908 87.0191 23.1303 87.7749 22.8937C88.2516 23.2643 88.799 23.5335 89.3835 23.6848C89.968 23.8361 90.5773 23.8663 91.174 23.7734C91.7706 23.6806 92.3419 23.4667 92.8528 23.145C93.3637 22.8232 93.8034 22.4004 94.1449 21.9024C94.4864 21.4045 94.7225 20.842 94.8386 20.2495C94.9547 19.6569 94.9484 19.0469 94.8201 18.4569C94.6918 17.8669 94.4441 17.3094 94.0924 16.8186C93.7407 16.3278 93.2955 15.9142 92.7781 15.603ZM23.3218 97.9155C23.322 97.0134 23.0534 96.1317 22.5504 95.3828C22.0473 94.634 21.3327 94.0519 20.4975 93.7109C19.6623 93.37 18.7444 93.2855 17.861 93.4683C16.9776 93.6511 16.1687 94.0929 15.5374 94.7374C15.0232 94.363 14.4359 94.1009 13.8138 93.9683C13.1917 93.8356 12.5486 93.8354 11.9263 93.9675C11.3041 94.0997 10.7166 94.3613 10.2021 94.7353C9.68759 95.1094 9.25752 95.5875 8.93986 96.1386C8.6222 96.6897 8.42404 97.3015 8.35828 97.9342C8.29252 98.5669 8.36062 99.2064 8.55815 99.8111C8.75568 100.416 9.07823 100.972 9.50484 101.444C9.93144 101.916 10.4526 102.293 11.0343 102.55C11.0914 103.296 11.2995 104.022 11.646 104.685C11.9925 105.347 12.4702 105.933 13.0501 106.405C13.6299 106.878 14.2997 107.227 15.0188 107.433C15.738 107.638 16.4913 107.695 17.2332 107.6C17.975 107.505 18.6899 107.261 19.3342 106.881C19.9785 106.501 20.5389 105.994 20.9813 105.391C21.4236 104.788 21.7387 104.102 21.9074 103.373C22.076 102.644 22.0948 101.889 21.9624 101.153C22.393 100.731 22.735 100.227 22.9685 99.6713C23.2019 99.1154 23.322 98.5185 23.3218 97.9155ZM31.7062 23.8405C30.8071 23.7672 29.9066 23.9633 29.1195 24.4038C28.3323 24.8443 27.6942 25.5093 27.2865 26.3139C26.8789 27.1186 26.7201 28.0264 26.8304 28.9216C26.9408 29.8169 27.3153 30.659 27.9062 31.3405C27.4906 31.8224 27.1812 32.3864 26.9979 32.9958C26.8147 33.6052 26.7617 34.2463 26.8426 34.8775C26.9234 35.5086 27.1361 36.1157 27.467 36.6593C27.7978 37.2028 28.2394 37.6707 28.763 38.0323C29.2865 38.394 29.8803 38.6415 30.5058 38.7586C31.1312 38.8756 31.7744 38.8598 32.3933 38.712C33.0122 38.5642 33.5931 38.2878 34.0982 37.9008C34.6033 37.5137 35.0213 37.0247 35.3249 36.4655C36.0693 36.4634 36.8055 36.3106 37.4892 36.0165C38.1729 35.7223 38.79 35.2927 39.3033 34.7537C39.8166 34.2147 40.2156 33.5774 40.476 32.8801C40.7365 32.1829 40.8532 31.4401 40.819 30.6966C40.7848 29.953 40.6005 29.2241 40.2771 28.5537C39.9537 27.8833 39.498 27.2852 38.9374 26.7956C38.3768 26.306 37.7228 25.9349 37.015 25.7047C36.3072 25.4745 35.5601 25.39 34.8187 25.4562C34.4332 24.9936 33.9595 24.6124 33.4251 24.335C32.8907 24.0576 32.3063 23.8895 31.7062 23.8405ZM132.853 91.9218C132.099 91.861 131.343 92.0262 130.683 92.3963C130.022 92.7664 129.487 93.3247 129.145 94.0001C128.803 94.6755 128.67 95.4373 128.763 96.1886C128.856 96.9399 129.17 97.6466 129.666 98.2187C129.312 98.6227 129.047 99.0971 128.889 99.6106C128.732 100.124 128.684 100.665 128.751 101.198C128.817 101.731 128.995 102.244 129.274 102.704C129.552 103.163 129.925 103.558 130.367 103.864C130.809 104.169 131.31 104.377 131.839 104.475C132.367 104.572 132.91 104.557 133.432 104.43C133.954 104.303 134.443 104.067 134.867 103.738C135.291 103.408 135.641 102.993 135.894 102.519C136.522 102.522 137.144 102.398 137.723 102.154C138.302 101.909 138.825 101.549 139.26 101.096C139.695 100.643 140.034 100.107 140.255 99.5187C140.476 98.9307 140.576 98.3038 140.547 97.6763C140.518 97.0487 140.362 96.4335 140.088 95.8681C139.814 95.3028 139.428 94.799 138.954 94.3876C138.479 93.9762 137.925 93.6656 137.327 93.4749C136.728 93.2841 136.097 93.2171 135.472 93.278C135.147 92.8894 134.748 92.5693 134.299 92.3364C133.849 92.1036 133.358 91.9626 132.853 91.9218ZM134.925 58.0312C135.147 57.0422 135.056 56.0087 134.666 55.0734C134.275 54.1382 133.603 53.3476 132.743 52.8108C131.883 52.274 130.878 52.0176 129.866 52.0771C128.854 52.1366 127.886 52.509 127.095 53.1428C126.304 53.7766 125.73 54.6405 125.451 55.6151C125.172 56.5897 125.203 57.6267 125.54 58.5828C125.876 59.5389 126.502 60.3669 127.329 60.9522C128.157 61.5375 129.146 61.8512 130.159 61.8499C130.936 61.8438 131.701 61.6509 132.387 61.2874C132.767 61.6457 133.269 61.8467 133.791 61.8499C134.066 61.8503 134.339 61.7964 134.593 61.6911C134.848 61.5859 135.079 61.4315 135.274 61.2367C135.469 61.0419 135.623 60.8105 135.729 60.556C135.834 60.3014 135.888 60.0285 135.887 59.753C135.883 59.409 135.793 59.0715 135.625 58.7713C135.457 58.4711 135.216 58.2146 134.925 58.0312Z" stroke="#1A1938" stroke-opacity="0.6" stroke-width="0.5" stroke-linecap="round" stroke-linejoin="round"/>
<path d="M63.5468 138.481C66.2167 138.481 68.3812 136.317 68.3812 133.647C68.3812 130.977 66.2167 128.812 63.5468 128.812C60.8768 128.812 58.7124 130.977 58.7124 133.647C58.7124 136.317 60.8768 138.481 63.5468 138.481Z" stroke="#1A1938" stroke-opacity="0.6" stroke-width="0.5" stroke-linecap="round" stroke-linejoin="round"/>
<path d="M31.6623 123.2C34.3823 123.2 36.5873 120.995 36.5873 118.275C36.5873 115.555 34.3823 113.35 31.6623 113.35C28.9423 113.35 26.7373 115.555 26.7373 118.275C26.7373 120.995 28.9423 123.2 31.6623 123.2Z" stroke="#1A1938" stroke-opacity="0.6" stroke-width="0.5" stroke-linecap="round" stroke-linejoin="round"/>
<path d="M17.5658 84.9749C19.9079 84.9749 21.8064 83.0763 21.8064 80.7343C21.8064 78.3922 19.9079 76.4937 17.5658 76.4937C15.2238 76.4937 13.3252 78.3922 13.3252 80.7343C13.3252 83.0763 15.2238 84.9749 17.5658 84.9749Z" stroke="#1A1938" stroke-opacity="0.6" stroke-width="0.5" stroke-linecap="round" stroke-linejoin="round"/>
<path d="M25.4346 50.9031C27.4366 50.9031 29.0596 49.2801 29.0596 47.2781C29.0596 45.276 27.4366 43.6531 25.4346 43.6531C23.4325 43.6531 21.8096 45.276 21.8096 47.2781C21.8096 49.2801 23.4325 50.9031 25.4346 50.9031Z" stroke="#1A1938" stroke-opacity="0.6" stroke-width="0.5" stroke-linecap="round" stroke-linejoin="round"/>
<path d="M60.9343 21.5062C62.9812 21.5062 64.6405 19.8469 64.6405 17.8C64.6405 15.7531 62.9812 14.0938 60.9343 14.0938C58.8874 14.0938 57.228 15.7531 57.228 17.8C57.228 19.8469 58.8874 21.5062 60.9343 21.5062Z" stroke="#1A1938" stroke-opacity="0.6" stroke-width="0.5" stroke-linecap="round" stroke-linejoin="round"/>
<path d="M115.069 35.4844C116.971 35.4844 118.512 33.9426 118.512 32.0407C118.512 30.1387 116.971 28.5969 115.069 28.5969C113.167 28.5969 111.625 30.1387 111.625 32.0407C111.625 33.9426 113.167 35.4844 115.069 35.4844Z" stroke="#1A1938" stroke-opacity="0.6" stroke-width="0.5" stroke-linecap="round" stroke-linejoin="round"/>
<path d="M124.737 46.9343C127.067 46.9343 128.956 45.0455 128.956 42.7156C128.956 40.3856 127.067 38.4968 124.737 38.4968C122.407 38.4968 120.519 40.3856 120.519 42.7156C120.519 45.0455 122.407 46.9343 124.737 46.9343Z" stroke="#1A1938" stroke-opacity="0.6" stroke-width="0.5" stroke-linecap="round" stroke-linejoin="round"/>
<path d="M137.869 80.7344C140.53 80.7344 142.687 78.577 142.687 75.9157C142.687 73.2544 140.53 71.0969 137.869 71.0969C135.207 71.0969 133.05 73.2544 133.05 75.9157C133.05 78.577 135.207 80.7344 137.869 80.7344Z" stroke="#1A1938" stroke-opacity="0.6" stroke-width="0.5" stroke-linecap="round" stroke-linejoin="round"/>
<path d="M112.862 108.197C115.555 108.197 117.737 106.014 117.737 103.322C117.737 100.629 115.555 98.4468 112.862 98.4468C110.17 98.4468 107.987 100.629 107.987 103.322C107.987 106.014 110.17 108.197 112.862 108.197Z" stroke="#1A1938" stroke-opacity="0.6" stroke-width="0.5" stroke-linecap="round" stroke-linejoin="round"/>
<path d="M85.6623 125.437C87.6402 125.437 89.2436 123.834 89.2436 121.856C89.2436 119.878 87.6402 118.275 85.6623 118.275C83.6844 118.275 82.0811 119.878 82.0811 121.856C82.0811 123.834 83.6844 125.437 85.6623 125.437Z" stroke="#1A1938" stroke-opacity="0.6" stroke-width="0.5" stroke-linecap="round" stroke-linejoin="round"/>
<path d="M47.2623 87.4843C47.2615 86.5773 46.9006 85.7077 46.259 85.0667C45.6173 84.4256 44.7474 84.0655 43.8404 84.0655C43.7686 84.0655 43.7029 84.0812 43.6311 84.0843C43.594 83.545 43.4461 83.0192 43.1967 82.5397C42.9473 82.0602 42.6016 81.6372 42.1813 81.2973C41.7611 80.9574 41.2752 80.7078 40.7542 80.5641C40.2331 80.4204 39.688 80.3857 39.1529 80.4621C38.6178 80.5386 38.1042 80.7246 37.6443 81.0085C37.1843 81.2924 36.7878 81.6681 36.4796 82.1122C36.1714 82.5562 35.958 83.059 35.8529 83.5892C35.7478 84.1194 35.7531 84.6656 35.8686 85.1937C35.3455 85.368 34.8655 85.6517 34.4606 86.0259C34.0556 86.4001 33.735 86.8562 33.52 87.3639C33.3049 87.8716 33.2005 88.4193 33.2135 88.9705C33.2265 89.5217 33.3567 90.0639 33.5955 90.5609C33.8343 91.0578 34.1761 91.4983 34.5983 91.853C35.0205 92.2076 35.5133 92.4683 36.0441 92.6177C36.5748 92.7672 37.1313 92.8019 37.6764 92.7196C38.2216 92.6373 38.7431 92.4399 39.2061 92.1405C39.6059 92.9878 40.3028 93.6589 41.1646 94.0265C42.0264 94.394 42.9931 94.4325 43.8814 94.1346C44.7697 93.8367 45.5178 93.2232 45.9837 92.4103C46.4496 91.5975 46.601 90.642 46.4092 89.7249C46.9533 89.1046 47.2561 88.3093 47.2623 87.4843Z" stroke="#1A1938" stroke-opacity="0.6" stroke-width="0.5" stroke-linecap="round" stroke-linejoin="round"/>
<path d="M72.8501 38.4031C75.0161 38.4031 76.772 36.6472 76.772 34.4812C76.772 32.3152 75.0161 30.5593 72.8501 30.5593C70.6841 30.5593 68.9282 32.3152 68.9282 34.4812C68.9282 36.6472 70.6841 38.4031 72.8501 38.4031Z" stroke="#1A1938" stroke-opacity="0.6" stroke-width="0.5" stroke-linecap="round" stroke-linejoin="round"/>
<path d="M99.5596 37.675C101.587 37.675 103.231 36.0311 103.231 34.0032C103.231 31.9753 101.587 30.3313 99.5596 30.3313C97.5316 30.3313 95.8877 31.9753 95.8877 34.0032C95.8877 36.0311 97.5316 37.675 99.5596 37.675Z" stroke="#1A1938" stroke-opacity="0.6" stroke-width="0.5" stroke-linecap="round" stroke-linejoin="round"/>
<path d="M86.4594 107.738C87.5674 107.738 88.4656 106.839 88.4656 105.731C88.4656 104.623 87.5674 103.725 86.4594 103.725C85.3514 103.725 84.4531 104.623 84.4531 105.731C84.4531 106.839 85.3514 107.738 86.4594 107.738Z" stroke="#1A1938" stroke-opacity="0.6" stroke-width="0.5" stroke-linecap="round" stroke-linejoin="round"/>
<path d="M93.9344 110.947C95.089 110.947 96.025 110.011 96.025 108.856C96.025 107.702 95.089 106.766 93.9344 106.766C92.7798 106.766 91.8438 107.702 91.8438 108.856C91.8438 110.011 92.7798 110.947 93.9344 110.947Z" stroke="#1A1938" stroke-opacity="0.6" stroke-width="0.5" stroke-linecap="round" stroke-linejoin="round"/>
<path d="M40.147 48.7749C42.0455 48.7749 43.5845 47.2359 43.5845 45.3374C43.5845 43.4389 42.0455 41.8999 40.147 41.8999C38.2485 41.8999 36.7095 43.4389 36.7095 45.3374C36.7095 47.2359 38.2485 48.7749 40.147 48.7749Z" stroke="#1A1938" stroke-opacity="0.6" stroke-width="0.5" stroke-linecap="round" stroke-linejoin="round"/>
<path d="M86.7502 23.0968L85.4346 27.9656M112.638 34.4812L107.219 39.275M121.525 45.4406L115.488 49.0625M125.556 58.6093L120.6 59.8156M133.047 75.9156L125.263 75.775M129.666 98.2187L119.36 93.3718M95.3314 123.516L93.6346 119.262M64.2002 128.812L65.6064 122.147M48.0564 125.947L52.3189 117.425M34.7627 114.459L40.7877 108.856M23.2127 96.9281L30.7439 94.0625M21.8096 80.7343L27.0564 80.0406M21.9627 62.1468L28.0908 63.7531M28.6221 48.9875L32.9033 51.4312M37.8846 35.8062L41.8033 40.0062M61.4439 21.4656L62.5596 28.4062" stroke="#1A1938" stroke-opacity="0.6" stroke-width="0.5" stroke-linecap="round" stroke-linejoin="round"/>
<path d="M114.913 122.803C116.854 122.803 118.428 121.229 118.428 119.288C118.428 117.346 116.854 115.772 114.913 115.772C112.971 115.772 111.397 117.346 111.397 119.288C111.397 121.229 112.971 122.803 114.913 122.803Z" stroke="#1A1938" stroke-opacity="0.6" stroke-width="0.5" stroke-linecap="round" stroke-linejoin="round"/>
<path d="M107.209 110.587L112.863 116.437" stroke="#1A1938" stroke-opacity="0.6" stroke-width="0.5" stroke-linecap="round" stroke-linejoin="round"/>
</svg>
