<svg width="117" height="38" viewBox="0 0 117 38" fill="none" xmlns="http://www.w3.org/2000/svg">
<path d="M4.19468 29H0.674685V9.64H4.19468V29ZM2.43468 2C3.71468 2 4.59468 2.96 4.59468 4.2C4.59468 5.4 3.75468 6.36 2.35468 6.36C1.07468 6.36 0.234685 5.4 0.234685 4.2C0.234685 3 1.11468 2 2.43468 2ZM10.5197 28.92V2.44C12.6397 2.08 15.1597 1.84 17.9197 1.84C22.9197 1.84 26.4797 3.04 28.8397 5.2C31.2797 7.4 32.6797 10.52 32.6797 14.88C32.6797 19.28 31.2797 22.88 28.7997 25.36C26.2397 27.88 22.0797 29.24 16.8397 29.24C14.3197 29.24 12.2797 29.12 10.5197 28.92ZM13.9997 4.96V26.28C14.8797 26.4 16.1597 26.44 17.5197 26.44C24.9997 26.44 28.9997 22.28 28.9997 15C29.0397 8.64 25.4397 4.6 18.0797 4.6C16.2797 4.6 14.9197 4.76 13.9997 4.96ZM40.9103 29H37.3903V9.64H40.9103V29ZM39.1503 2C40.4303 2 41.3103 2.96 41.3103 4.2C41.3103 5.4 40.4703 6.36 39.0703 6.36C37.7903 6.36 36.9503 5.4 36.9503 4.2C36.9503 3 37.8303 2 39.1503 2ZM63.6753 14.92V26.16C63.6753 30.64 62.7553 33.32 60.9153 35.04C58.9953 36.76 56.2753 37.36 53.8353 37.36C51.5153 37.36 48.9553 36.8 47.3953 35.76L48.2753 33.04C49.5553 33.88 51.5553 34.6 53.9553 34.6C57.5553 34.6 60.1953 32.72 60.1953 27.8V25.68H60.1153C59.0753 27.48 56.9553 28.92 53.9553 28.92C49.1553 28.92 45.7153 24.84 45.7153 19.48C45.7153 12.92 49.9953 9.24 54.4753 9.24C57.8353 9.24 59.6353 10.96 60.5153 12.56H60.5953L60.7153 9.64H63.8353C63.7153 11 63.6753 12.6 63.6753 14.92ZM60.1553 20.76V17.28C60.1553 16.68 60.1153 16.16 59.9553 15.72C59.3153 13.64 57.6353 11.96 55.0353 11.96C51.6753 11.96 49.2753 14.8 49.2753 19.28C49.2753 23.08 51.2353 26.24 54.9953 26.24C57.1953 26.24 59.1553 24.88 59.8753 22.64C60.0753 22.04 60.1553 21.36 60.1553 20.76ZM73.0947 29H69.5747V9.64H73.0947V29ZM71.3347 2C72.6147 2 73.4947 2.96 73.4947 4.2C73.4947 5.4 72.6547 6.36 71.2547 6.36C69.9747 6.36 69.1347 5.4 69.1347 4.2C69.1347 3 70.0147 2 71.3347 2ZM80.0997 6.04L83.5397 5V9.64H88.5797V12.32H83.5397V22.76C83.5397 25.16 84.2197 26.52 86.1797 26.52C87.1397 26.52 87.6997 26.44 88.2197 26.28L88.3797 28.96C87.6997 29.2 86.6197 29.44 85.2597 29.44C83.6197 29.44 82.2997 28.88 81.4597 27.96C80.4997 26.88 80.0997 25.16 80.0997 22.88V12.32H77.0997V9.64H80.0997V6.04ZM106.492 17.12V24.36C106.492 26.04 106.572 27.68 106.772 29H103.612L103.332 26.56H103.212C102.132 28.08 100.052 29.44 97.2919 29.44C93.3719 29.44 91.3719 26.68 91.3719 23.88C91.3719 19.2 95.5319 16.64 103.012 16.68V16.28C103.012 14.72 102.572 11.8 98.6119 11.84C96.7719 11.84 94.8919 12.36 93.5319 13.28L92.7319 10.92C94.3319 9.92 96.6919 9.24 99.1319 9.24C105.052 9.24 106.492 13.28 106.492 17.12ZM103.092 22.48V19.12C99.2519 19.04 94.8919 19.72 94.8919 23.48C94.8919 25.8 96.4119 26.84 98.1719 26.84C100.732 26.84 102.372 25.24 102.932 23.6C103.052 23.2 103.092 22.8 103.092 22.48ZM112.539 29V0.599998H116.059V29H112.539Z" fill="#1A1938"/>
</svg>
