<svg width="187" height="41" viewBox="0 0 187 41" fill="none" xmlns="http://www.w3.org/2000/svg">
<path d="M29.9453 18.328C29.439 18.8364 29.0514 19.45 28.8099 20.1249C28.5684 20.8 28.479 21.5199 28.5481 22.2333L28.524 22.2093C28.5951 23.0492 28.4816 23.8943 28.1916 24.6859C27.9016 25.4773 27.4421 26.1961 26.8452 26.7921C26.2481 27.388 25.528 27.8468 24.735 28.1361C23.9421 28.4256 23.0954 28.5389 22.2542 28.468L22.2783 28.492C21.2719 28.3985 20.2612 28.6171 19.3838 29.118C18.5065 29.6189 17.8052 30.3777 17.3758 31.2911C16.9463 32.2044 16.8094 33.2276 16.9839 34.2215C17.1585 35.2152 17.6357 36.1311 18.3507 36.8441C19.0657 37.5572 19.9836 38.0328 20.9793 38.206C21.975 38.3793 22.9999 38.2417 23.9145 37.8123C24.8291 37.3827 25.5886 36.6821 26.0896 35.8059C26.5906 34.9296 26.8087 33.9205 26.7142 32.916L26.7395 32.94C26.6685 32.1003 26.7819 31.2551 27.0719 30.4635C27.3618 29.672 27.8215 28.9532 28.4184 28.3572C29.0155 27.7613 29.7355 27.3025 30.5284 27.0132C31.3214 26.7237 32.168 26.6104 33.0094 26.6813L32.984 26.6573C33.806 26.7311 34.6335 26.5965 35.3896 26.2661C36.1456 25.9357 36.806 25.4201 37.3093 24.7672C37.8126 24.1143 38.1428 23.3449 38.2689 22.5308C38.3951 21.7165 38.3134 20.8837 38.0313 20.1093C37.7492 19.3351 37.2758 18.6444 36.6551 18.1013C36.0344 17.5583 35.2864 17.1804 34.4804 17.0028C33.6744 16.8252 32.8365 16.8535 32.0445 17.0851C31.2524 17.3168 30.5318 17.7443 29.9493 18.328H29.9453Z" fill="url(#paint0_linear_58899_24690)"/>
<path d="M20.0914 25.3478L20.066 25.3238C20.781 25.3957 21.5031 25.3081 22.1802 25.0673C22.8571 24.8265 23.4721 24.4386 23.9805 23.9316C24.4887 23.4245 24.8779 22.8109 25.1196 22.1353C25.3613 21.4597 25.4496 20.739 25.3782 20.0252L25.4035 20.0492C25.3325 19.2093 25.446 18.3642 25.7359 17.5726C26.0259 16.7812 26.4855 16.0624 27.0824 15.4664C27.6795 14.8705 28.3996 14.4117 29.1924 14.1224C29.9855 13.8328 30.832 13.7196 31.6734 13.7905L31.648 13.7665C32.6545 13.8609 33.6655 13.643 34.5433 13.1426C35.4213 12.6423 36.1231 11.8838 36.5532 10.9706C36.9833 10.0575 37.1207 9.03411 36.9468 8.0401C36.7729 7.04609 36.296 6.12985 35.5812 5.41633C34.8664 4.70282 33.9485 4.22677 32.9527 4.05314C31.957 3.8795 30.9318 4.01671 30.017 4.44607C29.1021 4.87542 28.3424 5.57602 27.8411 6.4523C27.3398 7.32857 27.1215 8.33786 27.2161 9.3425L27.1921 9.31716C27.2633 10.157 27.15 11.0023 26.8601 11.7939C26.5703 12.5855 26.1107 13.3044 25.5137 13.9005C24.9167 14.4964 24.1965 14.9552 23.4035 15.2445C22.6103 15.5338 21.7636 15.6469 20.9222 15.5758L20.9463 15.6012C20.2313 15.5293 19.509 15.6169 18.8321 15.8577C18.1552 16.0984 17.5402 16.4864 17.0318 16.9934C16.5235 17.5005 16.1344 18.1141 15.8926 18.7897C15.651 19.4653 15.5627 20.186 15.6341 20.8998L15.6101 20.8758C15.6809 21.7156 15.5672 22.5606 15.2772 23.3521C14.9871 24.1434 14.5276 24.8622 13.9307 25.4581C13.3337 26.054 12.6137 26.5126 11.8209 26.8022C11.0281 27.0917 10.1815 27.2052 9.34025 27.1345L9.36429 27.1585C8.35786 27.0641 7.34676 27.282 6.46892 27.7824C5.59109 28.2828 4.88924 29.0412 4.45912 29.9544C4.029 30.8676 3.89152 31.8909 4.06547 32.8849C4.23942 33.8789 4.71633 34.7952 5.43111 35.5086C6.1459 36.2222 7.06378 36.6982 8.05957 36.8718C9.05536 37.0454 10.0806 36.9082 10.9953 36.4789C11.9101 36.0496 12.67 35.349 13.1712 34.4728C13.6725 33.5964 13.8908 32.5872 13.7962 31.5825L13.8216 31.6065C13.7505 30.7666 13.864 29.9216 14.154 29.13C14.4439 28.3385 14.9035 27.6197 15.5004 27.0237C16.0975 26.4278 16.8176 25.969 17.6105 25.6797C18.4035 25.3902 19.25 25.2769 20.0914 25.3478Z" fill="url(#paint1_linear_58899_24690)"/>
<path d="M11.1404 22.6721C11.6467 22.1638 12.0343 21.5502 12.2756 20.8751C12.5168 20.2001 12.6059 19.4801 12.5362 18.7667L12.5616 18.7907C12.4905 17.9507 12.604 17.1053 12.8942 16.3135C13.1843 15.5218 13.6441 14.8029 14.2414 14.2069C14.8387 13.6109 15.5591 13.1523 16.3524 12.863C17.1457 12.5737 17.9926 12.4608 18.8341 12.5321L18.8088 12.5081C19.8148 12.6022 20.8256 12.3842 21.703 11.8839C22.5804 11.3836 23.2818 10.6253 23.7118 9.71239C24.1416 8.79951 24.2789 7.77651 24.105 6.78287C23.9311 5.78923 23.4542 4.87334 22.7398 4.16008C22.0253 3.44683 21.1077 2.97094 20.1123 2.79731C19.1169 2.62367 18.092 2.76076 17.1776 3.18986C16.263 3.61895 15.5034 4.31918 15.0022 5.19504C14.5009 6.07091 14.2826 7.07979 14.3769 8.08408L14.3528 8.06008C14.4239 8.89988 14.3103 9.74504 14.0204 10.5366C13.7304 11.3281 13.2709 12.0469 12.6739 12.6428C12.0769 13.2388 11.3568 13.6975 10.5639 13.9869C9.77092 14.2763 8.92427 14.3897 8.08297 14.3187L8.10701 14.3427C7.28497 14.2691 6.45762 14.4039 5.70163 14.7345C4.94564 15.065 4.28547 15.5807 3.78229 16.2338C3.27911 16.8867 2.94922 17.6561 2.82315 18.4702C2.6971 19.2845 2.77897 20.1173 3.06116 20.8914C3.34336 21.6657 3.81678 22.3562 4.43752 22.8991C5.05827 23.4422 5.80627 23.8199 6.61221 23.9975C7.41814 24.175 8.25594 24.1466 9.04798 23.915C9.84001 23.6833 10.5606 23.2558 11.1431 22.6721H11.1404Z" fill="url(#paint2_linear_58899_24690)"/>
<path d="M52.5156 9.37354H56.4827V28.6442H52.5156V9.37354Z" fill="url(#paint3_linear_58899_24690)"/>
<path d="M58.7307 22.0455C58.7252 20.6607 59.1315 19.3052 59.8982 18.1511C60.6649 16.9969 61.7575 16.0959 63.0377 15.5621C64.3178 15.0283 65.7278 14.8857 67.0892 15.1525C68.4505 15.4193 69.7019 16.0833 70.6849 17.0607C71.6679 18.0379 72.3381 19.2844 72.6109 20.6423C72.8836 22.0001 72.7464 23.4083 72.2168 24.6883C71.6872 25.9681 70.789 27.0625 69.6358 27.8324C68.4826 28.6024 67.1266 29.0135 65.7391 29.0135C64.8183 29.024 63.9045 28.8511 63.0513 28.5049C62.198 28.1588 61.4225 27.6464 60.77 26.9977C60.1174 26.3489 59.601 25.5768 59.2509 24.7265C58.9007 23.8763 58.7238 22.9648 58.7307 22.0455ZM68.7806 22.0455C68.764 21.4485 68.5715 20.8697 68.2273 20.3813C67.883 19.8931 67.4021 19.5168 66.8449 19.2999C66.2875 19.0828 65.6785 19.0345 65.0939 19.1612C64.5092 19.2879 63.9749 19.5836 63.5578 20.0117C63.1408 20.4397 62.8592 20.9811 62.7488 21.568C62.6382 22.1548 62.7032 22.7612 62.936 23.3113C63.1688 23.8615 63.5589 24.3308 64.0574 24.6608C64.556 24.9908 65.141 25.1668 65.7391 25.1668C66.1488 25.1777 66.5563 25.1037 66.9361 24.9496C67.3157 24.7955 67.6592 24.5645 67.9449 24.2713C68.2307 23.978 68.4525 23.6288 68.5962 23.2457C68.7401 22.8627 68.8029 22.454 68.7806 22.0455Z" fill="url(#paint4_linear_58899_24690)"/>
<path d="M88.5574 15.4452V27.9786C88.5574 32.4132 85.0926 34.2879 81.5756 34.2879C80.3374 34.3804 79.0975 34.1307 77.9919 33.5663C76.8865 33.0018 75.958 32.1443 75.3085 31.0879L78.6932 29.1346C78.9662 29.6852 79.4012 30.1395 79.9399 30.4367C80.4787 30.7338 81.0956 30.8596 81.7079 30.7972C82.0992 30.8514 82.4978 30.817 82.8741 30.6966C83.2502 30.5762 83.5946 30.3728 83.8815 30.1018C84.1684 29.8306 84.3905 29.4986 84.5316 29.13C84.6725 28.7616 84.7286 28.3663 84.6959 27.9732V26.7666C84.2313 27.3339 83.6401 27.7847 82.9694 28.0827C82.2988 28.3807 81.5676 28.5176 80.8343 28.4826C79.0896 28.4276 77.4348 27.6972 76.2201 26.4458C75.0054 25.1944 74.3262 23.5203 74.3262 21.7779C74.3262 20.0355 75.0054 18.3614 76.2201 17.11C77.4348 15.8586 79.0896 15.1282 80.8343 15.0732C81.5676 15.0382 82.2988 15.1751 82.9694 15.4731C83.6401 15.7711 84.2313 16.2219 84.6959 16.7892V15.4426L88.5574 15.4452ZM84.6972 21.7799C84.7239 21.1418 84.5585 20.5102 84.2226 19.9666C83.8867 19.4228 83.3954 18.992 82.8121 18.7295C82.2288 18.4668 81.5802 18.3846 80.9496 18.4931C80.319 18.6016 79.7354 18.896 79.2738 19.3386C78.8123 19.781 78.494 20.3511 78.3598 20.9756C78.2257 21.6002 78.2818 22.2506 78.5211 22.843C78.7603 23.4354 79.1717 23.9428 79.7023 24.2999C80.2328 24.657 80.8583 24.8474 81.4982 24.8466C81.915 24.8756 82.3332 24.8172 82.7261 24.6751C83.1189 24.533 83.4776 24.3102 83.7789 24.0214C84.0802 23.7324 84.3177 23.3838 84.4759 22.9976C84.634 22.6116 84.7095 22.1968 84.6972 21.7799Z" fill="url(#paint5_linear_58899_24690)"/>
<path d="M90.8049 22.0455C90.7994 20.6607 91.2056 19.3052 91.9724 18.1511C92.7391 16.9969 93.8317 16.0959 95.1119 15.5621C96.392 15.0283 97.802 14.8857 99.1634 15.1525C100.525 15.4193 101.776 16.0833 102.759 17.0607C103.742 18.0379 104.412 19.2844 104.685 20.6423C104.958 22.0001 104.821 23.4083 104.291 24.6883C103.761 25.9681 102.863 27.0625 101.71 27.8324C100.557 28.6024 99.2008 29.0135 97.8134 29.0135C96.8925 29.024 95.9786 28.8511 95.1255 28.5049C94.2723 28.1588 93.4967 27.6464 92.8442 26.9977C92.1916 26.3489 91.6752 25.5768 91.3251 24.7265C90.9749 23.8763 90.7981 22.9648 90.8049 22.0455ZM100.855 22.0455C100.838 21.4485 100.646 20.8697 100.302 20.3813C99.9572 19.8931 99.4763 19.5168 98.9191 19.2999C98.3617 19.0828 97.7526 19.0345 97.1681 19.1612C96.5834 19.2879 96.0492 19.5836 95.632 20.0117C95.215 20.4397 94.9334 20.9811 94.8228 21.568C94.7122 22.1548 94.7774 22.7612 95.0102 23.3113C95.2431 23.8615 95.6331 24.3308 96.1316 24.6608C96.6302 24.9908 97.2151 25.1668 97.8134 25.1668C98.223 25.1777 98.6306 25.1037 99.0102 24.9496C99.3899 24.7955 99.7335 24.5645 100.019 24.2713C100.305 23.978 100.527 23.6288 100.67 23.2457C100.814 22.8627 100.877 22.454 100.855 22.0455Z" fill="url(#paint6_linear_58899_24690)"/>
<path d="M106.672 11.9082C106.672 11.4383 106.811 10.9789 107.073 10.5882C107.335 10.1975 107.706 9.89292 108.141 9.7131C108.576 9.53326 109.055 9.4862 109.517 9.57788C109.978 9.66956 110.402 9.89586 110.735 10.2281C111.068 10.5604 111.295 10.9838 111.387 11.4447C111.478 11.9056 111.431 12.3833 111.251 12.8175C111.071 13.2516 110.766 13.6227 110.374 13.8838C109.983 14.1449 109.523 14.2842 109.052 14.2842C108.423 14.278 107.821 14.0257 107.376 13.5814C106.931 13.1372 106.678 12.5364 106.672 11.9082ZM107.073 15.4456H111.041V28.6456H107.067L107.073 15.4456Z" fill="url(#paint7_linear_58899_24690)"/>
<path d="M128.17 22.0455C128.216 22.9179 128.089 23.7907 127.795 24.6138C127.502 25.4369 127.049 26.1939 126.461 26.8415C125.874 27.489 125.164 28.0143 124.373 28.3871C123.581 28.7598 122.724 28.9727 121.849 29.0135C121.114 29.0535 120.38 28.9298 119.698 28.6513C119.017 28.3726 118.406 27.9462 117.91 27.4029V33.9242H113.943V15.4455H117.91V16.6855C118.406 16.1426 119.017 15.7165 119.698 15.4382C120.38 15.1598 121.114 15.0362 121.849 15.0762C122.724 15.1169 123.581 15.3297 124.373 15.7025C125.165 16.0753 125.875 16.6006 126.462 17.2483C127.05 17.8961 127.503 18.6534 127.796 19.4767C128.089 20.2999 128.216 21.173 128.17 22.0455ZM124.203 22.0455C124.187 21.4278 123.99 20.8283 123.635 20.3221C123.279 19.8159 122.783 19.4255 122.206 19.1999C121.63 18.9742 121 18.9231 120.395 19.0533C119.79 19.1833 119.236 19.4886 118.804 19.931C118.372 20.3735 118.08 20.9333 117.965 21.5406C117.85 22.1478 117.917 22.7753 118.157 23.3447C118.398 23.9142 118.801 24.4001 119.317 24.7418C119.833 25.0834 120.438 25.2657 121.057 25.2655C121.482 25.2845 121.907 25.2134 122.302 25.0571C122.698 24.901 123.056 24.663 123.353 24.359C123.65 24.0549 123.879 23.6917 124.026 23.293C124.172 22.8943 124.233 22.4691 124.203 22.0455Z" fill="url(#paint8_linear_58899_24690)"/>
<path d="M140.412 24.6841C140.412 27.7201 137.768 29.0135 134.913 29.0135C133.759 29.1177 132.6 28.8743 131.587 28.3141C130.573 27.7541 129.751 26.9035 129.227 25.8721L132.663 23.9188C132.802 24.3955 133.101 24.8103 133.509 25.0936C133.918 25.3771 134.412 25.5121 134.907 25.4761C135.858 25.4761 136.335 25.1855 136.335 24.6588C136.335 23.2055 129.829 23.9721 129.829 19.4055C129.829 16.5268 132.263 15.0761 135.013 15.0761C136.047 15.0435 137.07 15.2883 137.977 15.7849C138.884 16.2817 139.641 17.0121 140.169 17.9001L136.784 19.7215C136.636 19.3757 136.389 19.0812 136.073 18.8747C135.758 18.6681 135.39 18.5588 135.013 18.5601C134.325 18.5601 133.902 18.8268 133.902 19.2988C133.907 20.8041 140.412 19.8001 140.412 24.6841Z" fill="url(#paint9_linear_58899_24690)"/>
<path d="M154.902 15.4453V28.6453H150.935V27.404C150.477 27.9517 149.896 28.3833 149.239 28.6633C148.582 28.9433 147.868 29.0637 147.155 29.0146C144.484 29.0146 142.213 27.1146 142.213 23.548V15.4453H146.18V22.968C146.147 23.2824 146.183 23.6002 146.285 23.8993C146.387 24.1985 146.554 24.4718 146.773 24.7002C146.992 24.9286 147.258 25.1066 147.553 25.222C147.847 25.3373 148.163 25.3872 148.48 25.368C149.935 25.368 150.939 24.524 150.939 22.6493V15.4493L154.902 15.4453Z" fill="url(#paint10_linear_58899_24690)"/>
<path d="M177.65 20.54V28.644H173.683V20.8826C173.683 19.5626 173.049 18.7186 171.78 18.7186C170.458 18.7186 169.716 19.6426 169.716 21.2V28.644H165.751V20.8826C165.751 19.5626 165.116 18.7186 163.846 18.7186C162.523 18.7186 161.783 19.6426 161.783 21.2V28.644H157.816V15.444H161.783V16.6573C162.195 16.119 162.735 15.6921 163.353 15.4157C163.973 15.1392 164.651 15.022 165.327 15.0746C166.006 15.0414 166.682 15.1845 167.289 15.4897C167.896 15.7948 168.413 16.2518 168.791 16.816C169.23 16.2257 169.812 15.7564 170.483 15.4518C171.154 15.1473 171.891 15.0176 172.625 15.0746C175.662 15.076 177.65 17.24 177.65 20.54Z" fill="url(#paint11_linear_58899_24690)"/>
<path d="M181.004 15.3641C182.63 15.3641 183.948 14.0484 183.948 12.4255C183.948 10.8025 182.63 9.48682 181.004 9.48682C179.379 9.48682 178.061 10.8025 178.061 12.4255C178.061 14.0484 179.379 15.3641 181.004 15.3641Z" fill="url(#paint12_linear_58899_24690)"/>
<defs>
<linearGradient id="paint0_linear_58899_24690" x1="27.6184" y1="16.8877" x2="27.6184" y2="38.2789" gradientUnits="userSpaceOnUse">
<stop stop-color="#1A1938"/>
<stop offset="1" stop-color="#22AAFF"/>
</linearGradient>
<linearGradient id="paint1_linear_58899_24690" x1="20.5061" y1="3.97998" x2="20.5061" y2="36.945" gradientUnits="userSpaceOnUse">
<stop stop-color="#1A1938"/>
<stop offset="1" stop-color="#22AAFF"/>
</linearGradient>
<linearGradient id="paint2_linear_58899_24690" x1="13.472" y1="2.72412" x2="13.472" y2="24.1125" gradientUnits="userSpaceOnUse">
<stop stop-color="#1A1938"/>
<stop offset="1" stop-color="#22AAFF"/>
</linearGradient>
<linearGradient id="paint3_linear_58899_24690" x1="54.4992" y1="9.37354" x2="54.4992" y2="28.6442" gradientUnits="userSpaceOnUse">
<stop stop-color="#1A1938"/>
<stop offset="1" stop-color="#22AAFF"/>
</linearGradient>
<linearGradient id="paint4_linear_58899_24690" x1="65.739" y1="15.0215" x2="65.739" y2="29.0139" gradientUnits="userSpaceOnUse">
<stop stop-color="#1A1938"/>
<stop offset="1" stop-color="#22AAFF"/>
</linearGradient>
<linearGradient id="paint5_linear_58899_24690" x1="81.4418" y1="15.0679" x2="81.4418" y2="34.3067" gradientUnits="userSpaceOnUse">
<stop stop-color="#1A1938"/>
<stop offset="1" stop-color="#22AAFF"/>
</linearGradient>
<linearGradient id="paint6_linear_58899_24690" x1="97.8133" y1="15.0215" x2="97.8133" y2="29.0139" gradientUnits="userSpaceOnUse">
<stop stop-color="#1A1938"/>
<stop offset="1" stop-color="#22AAFF"/>
</linearGradient>
<linearGradient id="paint7_linear_58899_24690" x1="109.052" y1="9.53223" x2="109.052" y2="28.6456" gradientUnits="userSpaceOnUse">
<stop stop-color="#1A1938"/>
<stop offset="1" stop-color="#22AAFF"/>
</linearGradient>
<linearGradient id="paint8_linear_58899_24690" x1="121.061" y1="15.0688" x2="121.061" y2="33.9242" gradientUnits="userSpaceOnUse">
<stop stop-color="#1A1938"/>
<stop offset="1" stop-color="#22AAFF"/>
</linearGradient>
<linearGradient id="paint9_linear_58899_24690" x1="134.819" y1="15.0732" x2="134.819" y2="29.037" gradientUnits="userSpaceOnUse">
<stop stop-color="#1A1938"/>
<stop offset="1" stop-color="#22AAFF"/>
</linearGradient>
<linearGradient id="paint10_linear_58899_24690" x1="148.558" y1="15.4453" x2="148.558" y2="29.0253" gradientUnits="userSpaceOnUse">
<stop stop-color="#1A1938"/>
<stop offset="1" stop-color="#22AAFF"/>
</linearGradient>
<linearGradient id="paint11_linear_58899_24690" x1="167.733" y1="15.0615" x2="167.733" y2="28.644" gradientUnits="userSpaceOnUse">
<stop stop-color="#1A1938"/>
<stop offset="1" stop-color="#22AAFF"/>
</linearGradient>
<linearGradient id="paint12_linear_58899_24690" x1="181.004" y1="9.48682" x2="181.004" y2="15.3641" gradientUnits="userSpaceOnUse">
<stop stop-color="#1A1938"/>
<stop offset="1" stop-color="#22AAFF"/>
</linearGradient>
</defs>
</svg>
