<svg width="175" height="41" viewBox="0 0 175 41" fill="none" xmlns="http://www.w3.org/2000/svg">
<g clip-path="url(#clip0_58899_24710)">
<path d="M170.394 8.16415L174.568 12.3668C174.714 12.4829 174.822 12.6396 174.878 12.8171C174.963 13.8515 174.18 13.9081 173.38 13.9659C173.034 13.9909 172.685 14.0162 172.402 14.121C170.998 14.5009 169.746 15.3033 168.815 16.4193C167.883 17.5353 167.318 18.9109 167.195 20.3593C167.105 20.5266 166.969 20.6643 166.802 20.7558C166.636 20.8474 166.447 20.8888 166.257 20.8753C166.037 20.8558 165.831 20.7595 165.675 20.6032L164.305 19.2238C164.315 19.3182 164.315 19.4117 164.315 19.4869V20.3968C164.315 20.4543 164.317 20.5097 164.31 20.565C164.301 20.627 164.28 20.6888 164.231 20.7532V20.8377C164.231 20.8808 164.236 20.9209 164.241 20.9616C164.251 21.0449 164.262 21.1307 164.231 21.2505C164.201 21.3622 164.198 21.4925 164.194 21.6088C164.193 21.6779 164.191 21.7421 164.184 21.7945C164.174 21.8672 164.174 21.9448 164.168 22.0223C164.162 22.0949 164.15 22.1674 164.118 22.2354C164.074 22.3306 164.059 22.4215 164.055 22.5139C164.052 22.5581 164.052 22.6026 164.052 22.6482L163.996 22.939L161.867 33.0891L161.698 33.8489L161.632 34.9559L160.694 39.7495L160.544 40.5H84.6248L84.2589 40.1341L84.1932 40.4531H76.0694L71.5478 35.9034L71.9793 33.8489H69.4277L67.8424 32.2448C65.8749 33.6775 63.4934 34.4285 61.06 34.3837C58.4442 34.4866 55.8941 33.5488 53.9681 31.7758L51.5009 29.2899L50.9662 31.7851C50.9006 32.1416 50.8161 32.4794 50.7223 32.8077L50.6379 33.1173L50.4972 33.5675C50.4856 33.6066 50.4699 33.6444 50.4503 33.6801C50.3106 34.0937 50.1446 34.4979 49.9531 34.8902C49.9581 34.9054 49.9581 34.9219 49.9531 34.9371C49.9285 34.9891 49.9003 35.0392 49.8686 35.0872C49.727 35.3675 49.5705 35.6399 49.3996 35.9034C49.3679 35.9513 49.3397 36.0015 49.3152 36.0535L49.212 36.166C48.9827 36.4949 48.732 36.8082 48.4615 37.1041C48.3873 37.1783 48.3131 37.248 48.2377 37.3164C48.1607 37.3864 48.0825 37.4551 48.0018 37.5262L47.7955 37.7232C47.6654 37.8313 47.5323 37.9356 47.3964 38.0361C47.2843 38.119 47.1703 38.1992 47.0544 38.2767C45.1211 39.4222 42.891 39.9674 40.6473 39.8433C37.5516 39.8433 35.075 38.9427 33.5084 37.3668L29.0994 32.9296C27.3383 33.9262 25.3442 34.4377 23.3208 34.4118C20.7129 34.4925 18.1782 33.542 16.2664 31.7664L13.7993 29.2805L13.0019 33.1173L12.8424 33.8771H4.54036L0 29.2992L0.234521 28.1923L5.22515 4.22418L5.37521 3.47372H13.7054L13.9212 3.68013V3.47372H70.0469L70.2533 3.68013V3.47372H78.3771L82.9174 8.05158L82.6923 9.14913L82.4484 10.3499H84.7842L85.1501 10.7158C86.1779 10.1134 87.3453 9.79005 88.5366 9.77769C89.4126 9.76039 90.2825 9.92678 91.0903 10.2661C91.8982 10.6054 92.626 11.11 93.227 11.7476L93.105 11.6069L95.3095 13.8302C96.651 11.3068 99.6622 9.77769 103.752 9.77769C106.923 9.77769 109.259 10.5844 110.675 12.0478L112.27 13.652L112.805 11.0722L112.964 10.3217H121.097L123.424 12.6576L123.752 11.0816L123.912 10.3311H139.916L140.347 10.7627C141.431 10.1231 142.672 9.79818 143.931 9.82458C144.688 9.79503 145.442 9.93365 146.14 10.2305C146.837 10.5273 147.46 10.975 147.964 11.5413C147.938 11.5118 147.913 11.4823 147.888 11.4533C147.843 11.3995 147.798 11.347 147.75 11.2984L148.565 12.1135C149.275 11.3782 150.129 10.7959 151.072 10.4024C152.016 10.0088 153.03 9.8121 154.052 9.82458C154.595 9.7912 155.137 9.8374 155.663 9.96033L154.775 9.06473C154.654 8.93528 154.572 8.77421 154.539 8.60021C154.506 8.42621 154.523 8.24631 154.587 8.08147C154.652 7.91657 154.762 7.77343 154.905 7.66854C155.048 7.56365 155.217 7.50129 155.394 7.48875H156.107C156.299 7.47043 156.49 7.44226 156.679 7.4043C157.676 7.19474 158.614 6.76624 159.425 6.1497C160.237 5.53323 160.901 4.74418 161.37 3.83959C161.411 3.76962 161.448 3.69765 161.482 3.62384V3.57695C161.805 2.88215 162.001 2.13581 162.064 1.37242C162.08 1.1352 162.187 0.913106 162.361 0.751186C162.535 0.589208 162.764 0.49943 163.002 0.500003H163.077C163.219 0.513515 163.357 0.559435 163.479 0.634211C163.601 0.709045 163.704 0.810732 163.781 0.931543C164.456 1.58821 168.208 5.40617 168.208 5.40617C168.521 5.74238 168.498 6.17885 168.474 6.62046C168.459 6.89352 168.444 7.16858 168.508 7.42308C168.679 7.45371 168.852 7.4769 169.024 7.49259C169.19 7.50753 169.356 7.51566 169.522 7.51687C169.716 7.52093 169.905 7.5854 170.061 7.7014C170.217 7.81735 170.334 7.9791 170.394 8.16415Z" fill="black"/>
<path d="M42.9362 11.2507H48.8649L45.5441 27.0011C44.9344 29.9842 43.7711 31.6916 42.0075 32.9017C40.2237 33.9368 38.1754 34.426 36.1164 34.3088C32.1952 34.3088 28.4334 32.6672 28.0582 28.6803H34.0244C34.212 29.6184 35.0751 30.1531 36.3884 30.1531C38.1614 30.1531 38.9775 29.0837 39.3434 27.4045L39.6998 25.669H39.5685C39.045 26.2445 38.41 26.7075 37.7021 27.03C36.9941 27.3525 36.2281 27.5278 35.4503 27.5452C31.9982 27.5452 29.2589 24.7966 29.3152 20.7722C29.3903 16.0818 32.4484 10.7535 37.5798 10.7535C38.5522 10.688 39.523 10.9023 40.3775 11.3711C41.232 11.8398 41.9343 12.5435 42.4015 13.3989H42.5047L42.9362 11.2507ZM37.8424 23.1456C40.122 23.1456 41.3884 20.519 41.4259 18.2582C41.4259 16.7479 40.8349 15.2 39.0901 15.2C36.7073 15.2 35.4972 17.8548 35.4597 20.1343C35.4597 21.6728 36.0507 23.1456 37.7955 23.1456M104.4 23.6522C104.4 24.6559 103.536 25.0593 102.401 25.0593C100.525 25.0593 99.8968 24.1212 99.8874 22.8079H93.9869C93.8837 27.7047 98.2552 28.9148 102.139 28.9148C107.101 28.9148 110.319 26.7666 110.385 22.4796C110.385 19.0555 107.467 18.0143 104.597 17.3482C102.392 16.8417 101.426 16.4758 101.435 15.6409C101.445 14.806 102.43 14.4683 103.396 14.4683C104.606 14.4683 105.431 14.8998 105.516 16.0068H111.248C111.182 11.9167 107.495 10.716 103.743 10.716C99.1839 10.716 95.6285 12.7891 95.5722 16.7103C95.5722 19.7966 97.6548 20.9317 100.797 21.7385C102.814 22.2732 104.418 22.442 104.4 23.6522ZM148.236 13.7929H148.133C147.878 12.8691 147.314 12.0604 146.536 11.5007C145.758 10.9411 144.812 10.6642 143.855 10.716C141.304 10.716 139.747 11.9824 138.274 13.8961H138.171L138.715 11.2507H132.748L129.174 28.3426H135.413L137.289 19.1212C137.72 17.1137 138.743 15.7066 140.291 15.7066C141.839 15.7066 142.045 16.9448 141.726 18.4552L139.662 28.3426H145.9L147.777 19.1212C148.208 16.9824 149.231 15.7066 150.778 15.7066C152.326 15.7066 152.533 16.8792 152.214 18.4552L150.15 28.3426H156.388L158.621 18.1831C159.559 13.8961 158.124 10.6784 154.006 10.6784C152.86 10.6737 151.732 10.9563 150.724 11.5004C149.716 12.0445 148.861 12.8327 148.236 13.7929ZM1.14453 28.3426H7.58918L12.5704 4.37451H6.13515L1.14453 28.3426ZM20.5441 10.7441C24.8968 10.7441 29.0526 13.1268 28.9869 18.5208C28.9306 24.4214 24.9156 28.8398 18.7805 28.8398C14.5591 28.8398 10.3378 26.4946 10.4128 21.1287C10.516 15.3689 14.4747 10.7441 20.5441 10.7441ZM18.9588 24.6559C21.7074 24.6559 22.7111 20.669 22.7111 18.3238C22.7111 16.6447 22.1952 15.003 20.3846 15.003C17.6642 15.003 16.7355 19.2244 16.7355 21.4008C16.7355 23.1456 17.2233 24.6559 18.9963 24.6559M14.7186 4.37451L13.7805 9.16813H67.8987L68.8368 4.37451H14.7186ZM58.2458 10.7441C62.5985 10.7441 66.7542 13.1268 66.6886 18.5208C66.6323 24.4214 62.6079 28.8398 56.4728 28.8398C52.2514 28.8398 48.03 26.4946 48.1145 21.1287C48.2458 15.3689 52.2045 10.7441 58.2458 10.7441ZM56.6886 24.6559C59.4372 24.6559 60.4409 20.669 60.4409 18.3238C60.4409 16.6447 59.9156 15.003 58.1051 15.003C55.394 15.003 54.4559 19.2244 54.4559 21.4008C54.4559 23.1456 54.9437 24.6559 56.7261 24.6559M71.0507 4.37451L70.1126 9.16813H76.3415L77.2796 4.37451H71.0507ZM66.0601 28.3426H72.2983L75.8724 11.2507H69.5966L66.0601 28.3426ZM85.9662 28.9148C84.9734 28.9853 83.9805 28.7778 83.0989 28.3155C82.2174 27.8532 81.4821 27.1544 80.9756 26.2976H80.8724L78.9963 34.9467H72.6829L77.7486 11.2507H83.6773L83.2083 13.5302C83.8274 12.6882 84.6294 11.9975 85.5539 11.51C86.4784 11.0226 87.5014 10.7511 88.546 10.716C92.2983 10.716 94.5028 13.9336 94.4372 18.1175C94.3527 23.3801 91.6229 28.9148 85.9287 28.9148H85.9662ZM85.7223 15.5565C83.3115 15.5565 81.8293 18.6428 81.7918 21.0162C81.7918 22.6672 82.3734 24.5058 84.3527 24.5058C86.9325 24.5058 87.9925 21.0912 88.0206 18.8116C88.0206 17.2638 87.5704 15.5565 85.7223 15.5565ZM121.792 25.6503H121.895L121.351 28.3614H127.279L130.854 11.2694H124.625L122.636 20.8191C122.233 22.7985 121.013 23.8398 119.475 23.8398C117.936 23.8398 117.598 22.3951 117.908 20.8848L119.925 11.2694H113.696L111.491 21.8229C110.553 26.4195 112.692 28.8961 116.276 28.8961C117.401 28.8851 118.504 28.5776 119.472 28.0044C120.44 27.4312 121.241 26.6127 121.792 25.6315V25.6503ZM155.253 35.0312L156.191 30.2375H82.2139L81.2758 35.0312H155.253Z" fill="white"/>
<path d="M161.961 15.9409C161.9 15.9362 161.84 15.9193 161.785 15.8912C161.729 15.8632 161.68 15.8245 161.64 15.7774C161.6 15.7303 161.57 15.6758 161.551 15.6169C161.532 15.558 161.525 15.496 161.53 15.4343C161.608 14.5989 161.509 13.7563 161.239 12.9619C160.969 12.1675 160.534 11.439 159.962 10.8244C159.391 10.2097 158.696 9.72271 157.924 9.39521C157.151 9.06772 156.318 8.90714 155.479 8.924C155.355 8.924 155.236 8.87459 155.148 8.78662C155.06 8.69866 155.01 8.57935 155.01 8.45495C155.01 8.33055 155.06 8.21126 155.148 8.1233C155.236 8.03533 155.355 7.98591 155.479 7.98591C155.704 8.00045 155.93 8.00045 156.155 7.98591C157.821 7.8084 159.373 7.05561 160.544 5.85708C161.716 4.65855 162.432 3.08925 162.571 1.41931C162.581 1.30152 162.634 1.19166 162.721 1.11165C162.808 1.03165 162.922 0.987416 163.04 0.987795C163.102 0.99253 163.162 1.00942 163.217 1.03748C163.272 1.06554 163.321 1.10422 163.361 1.1513C163.402 1.19839 163.432 1.25293 163.451 1.31181C163.47 1.37068 163.477 1.43272 163.472 1.49436C163.394 2.32902 163.493 3.17077 163.762 3.96455C164.032 4.75832 164.466 5.48625 165.036 6.10075C165.607 6.71524 166.3 7.20246 167.071 7.53055C167.843 7.85864 168.675 8.0202 169.513 8.00467C169.637 8.00467 169.757 8.0541 169.845 8.14206C169.933 8.23002 169.982 8.34932 169.982 8.47372C169.982 8.59812 169.933 8.71743 169.845 8.80539C169.757 8.89335 169.637 8.94276 169.513 8.94276C167.731 8.9722 166.022 9.65874 164.715 10.8707C163.408 12.0826 162.594 13.7345 162.431 15.5094C162.421 15.6272 162.368 15.7371 162.281 15.8171C162.194 15.8971 162.08 15.9413 161.961 15.9409Z" fill="white"/>
</g>
<defs>
<clipPath id="clip0_58899_24710">
<rect width="175" height="40" fill="white" transform="translate(0 0.5)"/>
</clipPath>
</defs>
</svg>
