<svg width="132" height="41" viewBox="0 0 132 41" fill="none" xmlns="http://www.w3.org/2000/svg">
<path d="M-8.46239 36.7828L-12.0684 30.5235L-6.7764 21.3628L-3.41362 27.2005L16.4378 27.1898L10.8049 36.8692L-8.46239 36.7828Z" fill="#FFAD64"/>
<path d="M19.982 20.9749L16.3761 27.2341L5.81398 27.2217L9.1771 21.3841L-0.757812 4.16016L10.423 4.20932L19.982 20.9749Z" fill="#ADD4D3"/>
<path d="M-7.90689 4.12646H-0.694933L4.57525 13.2999L-2.15087 13.2995L-12.0672 30.5342L-17.6152 20.8056L-7.90689 4.12646Z" fill="#FB8351"/>
<path fill-rule="evenodd" clip-rule="evenodd" d="M0.184309 2.67753L0.162802 2.64014H-8.75887L-19.3281 20.7984L-12.0729 33.5206L-12.064 33.5052L-9.32121 38.2662L11.6547 38.3602L19.0209 25.7021H18.9719L21.6931 20.9786L11.2865 2.72634L0.184309 2.67753ZM7.08572 14.7868H7.14137L1.89691 5.65854L9.56033 5.69221L18.2716 20.971L15.545 25.7041L8.39941 25.7078L10.8908 21.3835L7.08572 14.7868ZM-1.63251 5.61354L1.94348 11.8133L-3.00774 11.8132L-11.4843 26.5453L-12.0625 27.5463L-15.9021 20.8135L-7.0547 5.61354H-1.63251ZM-5.07069 21.3508L-1.2938 14.7866L3.65874 14.7868L7.46423 21.3844L4.97232 25.7097L-2.55739 25.7139L-5.07069 21.3508ZM-10.3521 30.5298L-8.9152 28.0326L-6.77841 24.3336L-4.26999 28.6882L3.25861 28.6841L3.24642 28.7052L13.8314 28.7177L9.9548 35.3792L-7.60384 35.3004L-10.3521 30.5298Z" fill="#333237"/>
<path d="M75.7298 13.5207C76.7458 13.5207 77.5712 12.6934 77.5712 11.6541C77.5712 10.6146 76.7458 9.80859 75.7298 9.80859C74.6927 9.80859 73.8672 10.6146 73.8672 11.6541C73.8672 12.6934 74.6927 13.5207 75.7298 13.5207ZM74.0788 25.7813H77.3596V15.1753H74.0788V25.7813Z" fill="#FB8351"/>
<path d="M79.2695 30.8724H82.4869V24.7208C83.1006 25.5269 84.4976 26.0784 85.9581 26.0784C89.1118 26.0784 91.0168 23.6603 90.9326 20.3087C90.8472 16.8935 88.8789 14.8359 85.9369 14.8359C84.4341 14.8359 83.0159 15.4935 82.4233 16.4693L82.254 15.1754H79.2695V30.8724ZM82.5503 20.4784C82.5503 18.8875 83.6086 17.8269 85.1325 17.8269C86.6777 17.8269 87.6514 18.9087 87.6514 20.4784C87.6514 22.048 86.6777 23.1299 85.1325 23.1299C83.6086 23.1299 82.5503 22.0693 82.5503 20.4784Z" fill="#FB8351"/>
<path d="M91.2793 22.4299C91.3636 24.5724 93.0576 26.0572 95.7241 26.0572C98.2851 26.0572 100.063 24.6996 100.063 22.5147C100.063 20.945 99.1322 19.9057 97.396 19.4814L95.5123 19.0147C94.8349 18.845 94.4114 18.6754 94.4114 18.1238C94.4114 17.5724 94.8559 17.2117 95.5123 17.2117C96.2529 17.2117 96.7396 17.6996 96.7186 18.4208H99.661C99.5768 16.2147 97.9038 14.8359 95.5755 14.8359C93.2262 14.8359 91.47 16.2359 91.47 18.3572C91.47 19.7784 92.2527 20.945 94.3482 21.4966L96.2108 21.9845C96.7607 22.1329 96.9935 22.3875 96.9935 22.748C96.9935 23.2784 96.5068 23.6178 95.6819 23.6178C94.7296 23.6178 94.2218 23.1724 94.2218 22.4299H91.2793Z" fill="#FB8351"/>
<path d="M105.051 26.0571C106.342 26.0571 107.633 25.4632 108.29 24.5935L108.501 25.7813H111.57V15.1753H108.311V20.6904C108.311 22.2813 107.845 23.1511 106.342 23.1511C105.177 23.1511 104.416 22.6207 104.416 20.648V15.1753H101.156V21.8358C101.156 24.3602 102.553 26.0571 105.051 26.0571Z" fill="#FB8351"/>
<path d="M116.74 25.7816V19.9907C116.74 18.2089 117.692 17.6998 118.623 17.6998C119.661 17.6998 120.338 18.3362 120.338 19.6514V25.7816H123.555V19.9907C123.555 18.1877 124.486 17.6786 125.417 17.6786C126.455 17.6786 127.154 18.3149 127.154 19.6514V25.7816H130.328V18.8453C130.328 16.4271 129.058 14.8149 126.328 14.8149C124.804 14.8149 123.555 15.5574 123.005 16.7028C122.37 15.5574 121.27 14.8149 119.512 14.8149C118.348 14.8149 117.268 15.3453 116.634 16.1937L116.507 15.1756H113.459V25.7816H116.74Z" fill="#FB8351"/>
<path d="M31.0239 10.0859H27.5527V25.783H37.1621V22.7072H31.0239V10.0859Z" fill="#333237"/>
<path d="M37.4941 20.459C37.4941 23.8104 39.7378 26.0378 43.1243 26.0378C46.4898 26.0378 48.7333 23.8104 48.7333 20.459C48.7333 17.1074 46.4898 14.8589 43.1243 14.8589C39.7378 14.8589 37.4941 17.1074 37.4941 20.459ZM40.7749 20.4378C40.7749 18.8468 41.7062 17.7862 43.1243 17.7862C44.5213 17.7862 45.4526 18.8468 45.4526 20.4378C45.4526 22.0499 44.5213 23.1104 43.1243 23.1104C41.7062 23.1104 40.7749 22.0499 40.7749 20.4378Z" fill="#333237"/>
<path d="M49.2571 20.2891C49.2571 23.4922 51.3315 25.6557 54.2735 25.6557C55.6916 25.6557 56.9193 25.1467 57.5331 24.3194V25.7831C57.5331 27.2467 56.6229 28.2224 55.0143 28.2224C53.575 28.2224 52.5802 27.5436 52.5166 26.3345H49.2148C49.5111 29.2406 51.7548 31.1922 54.8238 31.1922C58.4432 31.1922 60.7291 28.8376 60.7291 25.1043V15.177H57.7871L57.6178 16.2589C57.025 15.3891 55.7763 14.8164 54.337 14.8164C51.3737 14.8164 49.2571 17.0436 49.2571 20.2891ZM52.559 20.2043C52.559 18.677 53.575 17.6589 54.8661 17.6589C56.3689 17.6589 57.4695 18.6557 57.4695 20.2043C57.4695 21.7527 56.3901 22.8133 54.8873 22.8133C53.5962 22.8133 52.559 21.7527 52.559 20.2043Z" fill="#333237"/>
<path d="M61.6797 20.459C61.6797 23.8104 63.9232 26.0378 67.3099 26.0378C70.6752 26.0378 72.9189 23.8104 72.9189 20.459C72.9189 17.1074 70.6752 14.8589 67.3099 14.8589C63.9232 14.8589 61.6797 17.1074 61.6797 20.459ZM64.9604 20.4378C64.9604 18.8468 65.8917 17.7862 67.3099 17.7862C68.7068 17.7862 69.6381 18.8468 69.6381 20.4378C69.6381 22.0499 68.7068 23.1104 67.3099 23.1104C65.8917 23.1104 64.9604 22.0499 64.9604 20.4378Z" fill="#333237"/>
</svg>
