<svg width="110" height="110" viewBox="0 0 110 110" fill="none" xmlns="http://www.w3.org/2000/svg">
<g clip-path="url(#clip0_58899_23699)">
<path d="M30.6734 23.9148C28.9543 24.2522 22.4996 29.0003 17.7218 32.652C12.9441 36.3037 6.64567 41.285 5.90149 42.8851C5.4192 43.6856 5.17391 44.6066 5.19413 45.5411C5.21434 46.4755 5.49923 47.385 6.01569 48.164C6.62872 48.8705 7.43187 49.3859 8.32951 49.6489C9.22715 49.9119 10.1815 49.9113 11.0788 49.6473C11.5095 49.5302 11.9179 49.3582 12.3043 49.1313C14.7825 52.6216 17.4742 56.2434 19.9276 59.4484C26.8836 68.5574 36.4643 80.405 39.9398 81.3675C42.6313 83.0543 49.1283 81.8064 53.013 78.8494C56.8977 75.8923 59.7901 69.9088 58.8697 66.8874C58.825 63.1812 49.9067 50.8399 42.9234 41.7235C40.4699 38.5185 37.684 34.9736 34.9056 31.7239C35.2698 31.4298 35.5941 31.0896 35.8706 30.7118C36.3531 29.9149 36.5995 28.9973 36.581 28.0659C36.5626 27.1345 36.28 26.2274 35.7663 25.4502C35.1523 24.7351 34.3466 24.2106 33.4442 23.9385C32.5417 23.6664 31.5803 23.6582 30.6734 23.9148Z" fill="white" stroke="#231F20" stroke-width="0.5" stroke-miterlimit="10"/>
<path d="M29.094 60.6144C30.2426 62.2615 31.4259 63.8888 32.5249 65.2879C35.6928 69.4207 40.0763 74.7938 41.8574 75.089C43.1672 75.7687 46.5831 74.8533 48.7488 73.2011C50.9144 71.5489 52.7054 68.4753 52.3655 67.034C52.5242 65.2157 48.5302 59.597 45.3623 55.4642C44.2509 54.0031 42.9808 52.4254 41.733 50.927L29.094 60.6144Z" fill="#FFE236" stroke="#231F20" stroke-width="0.5" stroke-miterlimit="10"/>
<path d="M16.9878 45.2339C21.5771 42.172 25.957 38.8073 30.0982 35.1621M31.0285 43.1995C32.182 42.4285 33.2841 41.5832 34.3278 40.6691M34.839 48.2551C35.9941 47.4844 37.0939 46.641 38.1383 45.7247" stroke="#231F20" stroke-width="0.5" stroke-miterlimit="10" stroke-linecap="round"/>
<path d="M39.0488 60.5001C39.3225 60.979 39.7753 61.3297 40.3075 61.4748C40.8397 61.6199 41.4078 61.5477 41.8867 61.274C42.3657 61.0003 42.7163 60.5476 42.8615 60.0153C43.0066 59.4831 42.9344 58.915 42.6607 58.4361C42.387 57.9571 41.9342 57.6065 41.402 57.4614C40.8698 57.3162 40.3017 57.3885 39.8227 57.6622C39.3438 57.9359 38.9932 58.3886 38.848 58.9208C38.7029 59.4531 38.7751 60.0211 39.0488 60.5001ZM40.8003 69.6116C41.074 70.0906 41.5268 70.4412 42.059 70.5864C42.5912 70.7315 43.1593 70.6593 43.6383 70.3856C44.1172 70.1119 44.4678 69.6591 44.613 69.1269C44.7581 68.5947 44.6859 68.0266 44.4122 67.5476C44.1385 67.0687 43.6857 66.7181 43.1535 66.5729C42.6213 66.4278 42.0532 66.5 41.5743 66.7737C41.0953 67.0474 40.7447 67.5002 40.5995 68.0324C40.4544 68.5646 40.5266 69.1327 40.8003 69.6116Z" fill="#231F20"/>
<path d="M27.9771 29.556C30.5868 27.6731 31.3632 27.621 31.899 27.7525" stroke="white" stroke-width="0.5" stroke-miterlimit="10" stroke-linecap="round"/>
<path d="M55.0685 17.8291C55.6501 18.8468 56.6122 19.5919 57.7432 19.9003C58.8742 20.2088 60.0813 20.0553 61.0991 19.4737C62.1169 18.892 62.862 17.9299 63.1704 16.799C63.4788 15.668 63.3253 14.4608 62.7437 13.4431C62.1621 12.4253 61.2 11.6802 60.069 11.3718C58.9381 11.0634 57.7309 11.2168 56.7131 11.7985C55.6953 12.3801 54.9503 13.3422 54.6418 14.4731C54.3334 15.6041 54.4869 16.8113 55.0685 17.8291ZM48.1352 29.7613C48.3411 30.1216 48.6159 30.4378 48.944 30.6919C49.2721 30.946 49.647 31.133 50.0474 31.2421C50.4477 31.3513 50.8657 31.3806 51.2774 31.3282C51.689 31.2759 52.0863 31.143 52.4466 30.9371C52.8069 30.7312 53.1231 30.4564 53.3772 30.1283C53.6313 29.8002 53.8183 29.4252 53.9275 29.0249C54.0366 28.6245 54.0659 28.2066 54.0136 27.7949C53.9612 27.3832 53.8283 26.9859 53.6224 26.6256C53.2066 25.898 52.5187 25.3653 51.7102 25.1448C50.9016 24.9243 50.0386 25.034 49.3109 25.4498C48.5833 25.8657 48.0506 26.5535 47.8301 27.3621C47.6096 28.1706 47.7194 29.0337 48.1352 29.7613ZM75.0903 24.6085C75.2962 24.9688 75.571 25.285 75.8991 25.539C76.2272 25.7931 76.6022 25.9801 77.0025 26.0893C77.4029 26.1985 77.8208 26.2277 78.2325 26.1754C78.6442 26.123 79.0415 25.9901 79.4018 25.7842C79.7621 25.5783 80.0783 25.3035 80.3324 24.9754C80.5865 24.6473 80.7734 24.2724 80.8826 23.872C80.9918 23.4717 81.021 23.0537 80.9687 22.642C80.9164 22.2304 80.7834 21.8331 80.5776 21.4728C80.1617 20.7451 79.4739 20.2124 78.6653 19.9919C77.8568 19.7714 76.9937 19.8812 76.2661 20.297C75.5384 20.7128 75.0058 21.4007 74.7853 22.2092C74.5648 23.0178 74.6745 23.8808 75.0903 24.6085Z" fill="white" stroke="#231F20" stroke-width="0.5" stroke-miterlimit="10" stroke-linecap="round"/>
<path d="M71.9429 62.9178C79.7991 58.7278 84.4949 45.5403 84.9687 44.233C85.822 41.6952 86.963 38.2098 86.4545 37.2796C85.6882 36.0004 84.4731 35.0524 83.046 34.6203C81.6493 34.0439 80.0866 34.0155 78.67 34.541C77.6865 35.4542 76.9654 36.614 76.5813 37.8999C75.5419 37.4112 74.3909 36.8481 73.3713 36.5554C72.3517 36.2627 71.1734 35.8534 70.0645 35.5657C70.5507 33.8366 70.8657 32.2515 70.5556 31.6685C69.8094 30.3718 68.5864 29.4176 67.1471 29.0093C65.7505 28.4328 64.1878 28.4045 62.7712 28.93C61.8087 29.3418 60.4543 32.6957 59.4967 35.293C59.0155 36.6276 54.2999 49.7803 57.7854 58.0162C49.9192 62.1888 45.2235 75.3763 44.7596 76.701C43.9063 79.2388 42.7826 82.7142 43.2639 83.637C44.0302 84.9162 45.2453 85.8642 46.6724 86.2963C48.2898 86.8693 50.4679 86.8916 51.0558 86.3483C52.0462 85.444 52.7797 84.2937 53.1817 83.0142C54.2211 83.5029 55.3126 83.9618 56.3818 84.3413C57.451 84.7209 58.5797 85.0433 59.706 85.3212C59.2024 87.0601 58.8973 88.6627 59.2074 89.2456C59.9737 90.5248 61.1888 91.4728 62.6159 91.9049C64.0189 92.4827 65.5887 92.5075 67.0092 91.9743C67.9717 91.5624 69.3261 88.2085 70.234 85.5244C70.7128 84.3064 75.3912 71.1288 71.9429 62.9178Z" fill="white" stroke="#231F20" stroke-width="0.5" stroke-miterlimit="10"/>
<path d="M55.3473 77.1699C57.6039 77.4805 59.7739 78.2468 61.7252 79.4222L61.9583 78.7822C59.6881 78.4501 57.5099 77.6566 55.5581 76.4504L55.3473 77.1699ZM57.7038 70.4099C59.9599 70.7299 62.1274 71.5055 64.0743 72.6896L64.2975 72.0322C62.0474 71.7109 59.8846 70.9416 57.937 69.7699L57.7038 70.4099ZM74.386 43.6926C72.1312 43.3672 69.9649 42.592 68.0156 41.4129L67.7923 42.0703C70.0226 42.4075 72.1622 43.1904 74.0834 44.3723L74.386 43.6926ZM72.0072 50.3731C69.7478 50.0737 67.5756 49.3066 65.6293 48.1207L65.406 48.7781C67.6654 49.0776 69.8375 49.8447 71.7839 51.0305L72.0072 50.3731Z" stroke="#231F20" stroke-width="0.5" stroke-miterlimit="10"/>
<path d="M71.9427 62.9179C69.1965 64.2487 66.2112 65.0147 63.1635 65.1705M57.7778 57.8823C60.524 56.5515 63.5093 55.7855 66.557 55.6297" stroke="#231F20" stroke-width="0.5" stroke-miterlimit="10" stroke-linecap="round"/>
<path d="M62.8484 35.6353C64.0763 31.7778 64.2227 31.6712 65.6069 31.7555" stroke="white" stroke-width="0.5" stroke-miterlimit="10" stroke-linecap="round"/>
<path d="M63.1063 56.0815L63.719 54.3723C64.5543 55.0076 65.525 55.4365 66.557 55.63M66.3214 64.7713L65.9866 66.483C65.1495 65.9445 64.2465 65.516 63.3 65.208" stroke="#231F20" stroke-width="0.5" stroke-miterlimit="10"/>
</g>
<defs>
<clipPath id="clip0_58899_23699">
<rect width="80" height="80" fill="white" transform="translate(0 39.6924) rotate(-29.7458)"/>
</clipPath>
</defs>
</svg>
