<svg width="220" height="41" viewBox="0 0 220 41" fill="none" xmlns="http://www.w3.org/2000/svg">
<g clip-path="url(#clip0_58899_24704)">
<path d="M19.9994 40.5C31.0454 40.5 39.9994 31.546 39.9994 20.5V6.5C39.9994 4.9087 39.3673 3.38258 38.2421 2.25736C37.1169 1.13214 35.5907 0.5 33.9994 0.5L20.9994 0.5V9.274C20.9994 11.276 21.1214 13.35 22.1714 15.054C22.9231 16.2752 23.9287 17.3204 25.1199 18.1188C26.3112 18.9171 27.6602 19.4499 29.0754 19.681L29.4584 19.743C29.6163 19.797 29.7534 19.899 29.8505 20.0347C29.9475 20.1704 29.9997 20.3331 29.9997 20.5C29.9997 20.6669 29.9475 20.8296 29.8505 20.9653C29.7534 21.101 29.6163 21.203 29.4584 21.257L29.0754 21.319C27.0076 21.6568 25.0981 22.6356 23.6166 24.1171C22.135 25.5987 21.1562 27.5082 20.8184 29.576L20.7564 29.959C20.7025 30.1169 20.6005 30.254 20.4647 30.351C20.329 30.4481 20.1663 30.5003 19.9994 30.5003C19.8326 30.5003 19.6699 30.4481 19.5341 30.351C19.3984 30.254 19.2964 30.1169 19.2424 29.959L19.1804 29.576C18.9493 28.1607 18.4165 26.8118 17.6182 25.6205C16.8198 24.4293 15.7746 23.4237 14.5534 22.672C12.8494 21.622 10.7754 21.5 8.77344 21.5H0.0234375C0.546438 32.081 9.28944 40.5 19.9994 40.5Z" fill="#0E1534"/>
<path d="M0 19.5H8.774C10.776 19.5 12.85 19.378 14.554 18.328C15.886 17.5073 17.0073 16.386 17.828 15.054C18.878 13.35 19 11.276 19 9.274V0.5H6C4.4087 0.5 2.88258 1.13214 1.75736 2.25736C0.632141 3.38258 0 4.9087 0 6.5L0 19.5ZM46.455 2.5C46.455 3.03043 46.2443 3.53914 45.8692 3.91421C45.4941 4.28929 44.9854 4.5 44.455 4.5C43.9246 4.5 43.4159 4.28929 43.0408 3.91421C42.6657 3.53914 42.455 3.03043 42.455 2.5C42.455 1.96957 42.6657 1.46086 43.0408 1.08579C43.4159 0.710714 43.9246 0.5 44.455 0.5C44.9854 0.5 45.4941 0.710714 45.8692 1.08579C46.2443 1.46086 46.455 1.96957 46.455 2.5ZM211.711 12.604C217.302 12.604 220 16.509 220 21.032V29.527H214.149V22.04C214.149 19.99 213.401 18.298 211.256 18.298C209.111 18.298 208.396 19.99 208.396 22.04V29.526H202.545V22.04C202.545 19.99 201.83 18.298 199.684 18.298C197.539 18.298 196.791 19.99 196.791 22.04V29.526H190.941V21.031C190.941 16.508 193.638 12.603 199.229 12.603C202.285 12.603 204.495 13.807 205.503 15.792C206.575 13.807 208.916 12.602 211.711 12.602V12.604ZM180.427 24.32C182.312 24.32 183.125 22.595 183.125 20.544V13.254H188.975V21.26C188.975 26.044 186.18 30.015 180.427 30.015C174.673 30.015 171.878 26.045 171.878 21.26V13.254H177.729V20.544C177.729 22.594 178.541 24.32 180.427 24.32ZM163.275 30.047C159.602 30.047 157.229 28.778 155.831 26.305L160.057 23.929C160.642 24.97 161.519 25.491 162.982 25.491C164.185 25.491 164.737 25.068 164.737 24.547C164.737 22.562 156.156 24.58 156.156 18.267C156.156 15.207 158.756 12.734 163.177 12.734C167.045 12.734 169.158 14.621 170.101 16.444L165.875 18.852C165.518 17.876 164.412 17.29 163.307 17.29C162.462 17.29 162.007 17.648 162.007 18.136C162.007 20.154 170.588 18.299 170.588 24.417C170.588 27.834 167.24 30.047 163.275 30.047ZM142.833 37.012H136.982V21.358C136.982 16.378 140.72 12.766 145.921 12.766C150.992 12.766 154.86 16.639 154.86 21.358C154.86 26.565 151.414 30.015 146.246 30.015C145.043 30.015 143.841 29.657 142.833 29.103V37.012ZM145.921 24.515C147.774 24.515 149.009 23.083 149.009 21.39C149.009 19.666 147.774 18.266 145.921 18.266C144.068 18.266 142.833 19.666 142.833 21.391C142.833 23.083 144.068 24.515 145.921 24.515ZM131.121 11.53C129.203 11.53 127.611 9.935 127.611 8.015C127.611 6.095 129.203 4.5 131.121 4.5C133.039 4.5 134.632 6.095 134.632 8.015C134.632 9.935 133.039 11.53 131.121 11.53ZM128.196 13.254H134.047V29.527H128.196V13.254ZM116.97 30.015C111.899 30.015 108.031 26.11 108.031 21.358C108.031 16.639 111.899 12.734 116.97 12.734C122.041 12.734 125.909 16.639 125.909 21.358C125.909 26.11 122.041 30.015 116.97 30.015ZM116.97 24.515C118.823 24.515 120.058 23.083 120.058 21.39C120.058 19.666 118.823 18.234 116.97 18.234C115.117 18.234 113.882 19.666 113.882 21.39C113.882 23.083 115.117 24.515 116.97 24.515ZM96.983 37.5C92.953 37.5 90.027 35.71 88.532 32.52L93.375 29.917C93.895 31.024 94.87 32.163 96.885 32.163C98.999 32.163 100.396 30.828 100.559 28.485C99.779 29.169 98.543 29.689 96.691 29.689C92.172 29.689 88.531 26.207 88.531 21.325C88.531 16.607 92.4 12.766 97.471 12.766C102.672 12.766 106.41 16.379 106.41 21.358V27.802C106.41 33.66 102.346 37.5 96.983 37.5ZM97.373 24.19C99.128 24.19 100.461 22.985 100.461 21.195C100.461 19.438 99.129 18.266 97.373 18.266C95.65 18.266 94.285 19.438 94.285 21.196C94.285 22.986 95.65 24.189 97.373 24.189V24.19ZM78.607 30.015C73.536 30.015 69.667 26.11 69.667 21.358C69.667 16.639 73.536 12.734 78.607 12.734C83.677 12.734 87.546 16.639 87.546 21.358C87.546 26.11 83.678 30.015 78.607 30.015ZM78.607 24.515C80.46 24.515 81.695 23.083 81.695 21.39C81.695 19.666 80.46 18.234 78.607 18.234C76.754 18.234 75.519 19.666 75.519 21.39C75.519 23.083 76.754 24.515 78.607 24.515ZM59.013 7.56V23.994H68.7V29.527H58.2C54.495 29.527 53 27.574 53 24.482V7.56H59.013Z" fill="#0E1534"/>
</g>
<defs>
<clipPath id="clip0_58899_24704">
<rect width="220" height="40" fill="white" transform="translate(0 0.5)"/>
</clipPath>
</defs>
</svg>
