<svg width="44" height="37" viewBox="0 0 44 37" fill="none" xmlns="http://www.w3.org/2000/svg">
<path d="M13.2768 17.0979C14.099 14.541 17.2529 11.9128 20.3212 11.2276L39.4502 6.95559C42.5185 6.27037 44.3392 7.78766 43.5169 10.3446L38.3906 26.2854C37.5683 28.8423 34.4144 31.4705 31.3461 32.1557L12.2172 36.4277C9.1489 37.1129 7.32815 35.5956 8.15042 33.0387L13.2768 17.0979Z" fill="url(#paint0_linear_58899_24741)"/>
<path d="M5.60882 10.7073C6.43108 8.15041 9.58498 5.52216 12.6533 4.83694L31.7822 0.564962C34.8505 -0.120258 36.6713 1.39703 35.849 3.95392L30.7226 19.8947C29.9004 22.4516 26.7465 25.0799 23.6782 25.7651L4.5492 30.0371C1.48093 30.7223 -0.339816 29.205 0.482449 26.6481L5.60882 10.7073Z" fill="url(#paint1_linear_58899_24741)"/>
<defs>
<linearGradient id="paint0_linear_58899_24741" x1="29.8857" y1="9.09158" x2="34.8612" y2="31.3707" gradientUnits="userSpaceOnUse">
<stop stop-color="#1A1938"/>
<stop offset="1" stop-color="#22AAFF"/>
</linearGradient>
<linearGradient id="paint1_linear_58899_24741" x1="22.2177" y1="2.70095" x2="27.1932" y2="24.9801" gradientUnits="userSpaceOnUse">
<stop stop-color="#1A1938"/>
<stop offset="1" stop-color="#22AAFF"/>
</linearGradient>
</defs>
</svg>
