<svg width="125" height="41" viewBox="0 0 125 41" fill="none" xmlns="http://www.w3.org/2000/svg">
<g clip-path="url(#clip0_58899_24714)">
<path d="M88.8603 37.725C89.6193 37.725 90.0683 37.15 90.0683 36.251C90.0683 35.319 89.5863 34.777 88.8763 34.777C88.4703 34.777 88.1883 34.957 87.9773 35.243H87.9673V33.77H87.5273V37.643H87.9673V37.275H87.9773C88.2053 37.589 88.4813 37.725 88.8603 37.725ZM88.8283 37.356C88.2323 37.356 87.9393 36.885 87.9393 36.256C87.9393 35.65 88.2213 35.151 88.8333 35.151C89.3643 35.151 89.6193 35.628 89.6193 36.256C89.6193 36.89 89.3643 37.356 88.8283 37.356ZM90.8113 38.57C91.1523 38.57 91.3693 38.45 91.5963 37.87L92.7943 34.842H92.3283L91.6883 36.587C91.6023 36.82 91.5043 37.134 91.5043 37.134H91.4943C91.4943 37.134 91.3903 36.82 91.3043 36.587L90.6433 34.842H90.1663L91.2603 37.562L91.1523 37.838C91.0443 38.109 90.9193 38.18 90.7353 38.18C90.6326 38.1852 90.5301 38.1646 90.4373 38.12H90.4153V38.51C90.5353 38.559 90.6433 38.57 90.8113 38.57ZM93.9173 37.643H94.6543V33.77H93.9173V37.643ZM96.4563 37.725C97.3173 37.725 97.9083 37.085 97.9083 36.256C97.9083 35.427 97.3183 34.788 96.4563 34.788C95.5953 34.788 95.0043 35.428 95.0043 36.256C95.0043 37.086 95.5943 37.725 96.4563 37.725ZM96.4563 37.161C96.0013 37.161 95.7523 36.798 95.7523 36.256C95.7523 35.715 96.0013 35.346 96.4563 35.346C96.9063 35.346 97.1603 35.715 97.1603 36.256C97.1603 36.798 96.9063 37.161 96.4563 37.161ZM99.4753 38.591C99.8873 38.591 100.244 38.494 100.477 38.277C100.683 38.087 100.808 37.822 100.808 37.432V34.864H100.098V35.157H100.087C99.9193 34.924 99.6653 34.788 99.3173 34.788C98.6143 34.788 98.1153 35.319 98.1153 36.148C98.1153 36.988 98.7223 37.475 99.3403 37.475C99.6923 37.475 99.9033 37.335 100.065 37.15H100.082V37.454C100.082 37.833 99.8823 38.034 99.4643 38.034C99.1233 38.034 98.9663 37.898 98.9063 37.724H98.1753C98.2503 38.266 98.7163 38.591 99.4753 38.591ZM99.4653 36.885C99.0853 36.885 98.8353 36.609 98.8353 36.137C98.8353 35.671 99.0853 35.379 99.4593 35.379C99.9033 35.379 100.12 35.725 100.12 36.132C100.12 36.544 99.9303 36.885 99.4643 36.885H99.4653ZM102.599 37.725C103.46 37.725 104.051 37.085 104.051 36.256C104.051 35.427 103.46 34.788 102.599 34.788C101.737 34.788 101.147 35.428 101.147 36.256C101.147 37.086 101.737 37.725 102.599 37.725ZM102.599 37.161C102.144 37.161 101.894 36.798 101.894 36.256C101.894 35.715 102.144 35.346 102.599 35.346C103.048 35.346 103.303 35.715 103.303 36.256C103.303 36.798 103.048 37.161 102.599 37.161ZM104.393 37.643H105.13V34.864H104.393V37.643ZM104.393 34.431H105.13V33.77H104.393V34.431ZM105.605 38.553H106.342V37.33H106.352C106.51 37.569 106.764 37.726 107.154 37.726C107.869 37.726 108.357 37.156 108.357 36.257C108.357 35.39 107.886 34.789 107.149 34.789C106.989 34.7864 106.83 34.8237 106.687 34.8975C106.544 34.9713 106.422 35.0794 106.331 35.212H106.315V34.865H105.605V38.555V38.553ZM106.997 37.113C106.558 37.113 106.325 36.782 106.325 36.278C106.325 35.78 106.51 35.384 106.97 35.384C107.425 35.384 107.609 35.752 107.609 36.278C107.609 36.804 107.371 37.113 106.997 37.113ZM109.827 37.725C110.52 37.725 110.997 37.389 110.997 36.831C110.997 36.181 110.482 36.051 110.016 35.953C109.621 35.872 109.253 35.85 109.253 35.612C109.253 35.412 109.442 35.302 109.729 35.302C110.044 35.302 110.233 35.412 110.266 35.709H110.932C110.878 35.151 110.472 34.789 109.74 34.789C109.106 34.789 108.608 35.075 108.608 35.677C108.608 36.283 109.095 36.419 109.594 36.517C109.973 36.592 110.325 36.619 110.325 36.885C110.325 37.08 110.141 37.205 109.816 37.205C109.486 37.205 109.258 37.064 109.209 36.744H108.527C108.57 37.334 109.02 37.725 109.827 37.725ZM113.795 37.643V34.864H113.058V36.468C113.058 36.836 112.846 37.096 112.5 37.096C112.186 37.096 112.039 36.917 112.039 36.592V34.864H111.308V36.717C111.308 37.324 111.655 37.719 112.272 37.719C112.662 37.719 112.879 37.573 113.069 37.319H113.085V37.643H113.795ZM114.271 37.643H115.008V36.03C115.008 35.661 115.208 35.423 115.506 35.423C115.777 35.423 115.934 35.586 115.934 35.9V37.644H116.671V36.03C116.671 35.661 116.861 35.423 117.17 35.423C117.441 35.423 117.598 35.586 117.598 35.9V37.644H118.335V35.775C118.335 35.168 118.004 34.789 117.419 34.789C117.067 34.789 116.774 34.973 116.585 35.277H116.574C116.508 35.1294 116.399 35.0046 116.262 34.9178C116.126 34.8311 115.966 34.7863 115.804 34.789C115.642 34.7849 115.481 34.8245 115.339 34.9037C115.197 34.9828 115.079 35.0987 114.997 35.239H114.981V34.865H114.271V37.645V37.643Z" fill="#E5708C"/>
<path d="M118.481 2.64918C118.481 1.46618 119.44 0.506183 120.623 0.506183H122.052C122.62 0.506183 123.165 0.731962 123.567 1.13385C123.969 1.53574 124.195 2.08082 124.195 2.64918C124.195 3.21754 123.969 3.76262 123.567 4.16451C123.165 4.5664 122.62 4.79218 122.052 4.79218H120.623C120.341 4.79218 120.063 4.73674 119.803 4.62904C119.543 4.52133 119.307 4.36346 119.108 4.16445C118.909 3.96544 118.751 3.72919 118.643 3.4692C118.536 3.2092 118.48 2.93056 118.481 2.64918ZM58.4896 14.7902C58.4896 22.6782 52.0956 29.0732 44.2066 29.0732C36.3186 29.0732 29.9236 22.6782 29.9236 14.7902C29.9236 6.90018 36.3186 0.507183 44.2066 0.507183C52.0956 0.507183 58.4896 6.90018 58.4896 14.7902ZM27.1376 14.7192C27.9276 14.7192 28.5736 15.3592 28.4946 16.1452C28.2246 18.835 27.1968 21.393 25.5307 23.5218C23.8645 25.6507 21.6285 27.263 19.0823 28.1713C16.5361 29.0797 13.7845 29.2468 11.1471 28.6533C8.50973 28.0597 6.09494 26.7299 4.1834 24.8184C2.27185 22.9068 0.942035 20.4921 0.348505 17.8547C-0.245025 15.2173 -0.0778988 12.4656 0.830461 9.91948C1.73882 7.37333 3.35111 5.13724 5.47996 3.47109C7.6088 1.80494 10.1668 0.777157 12.8566 0.507183C13.6416 0.427183 14.2826 1.07518 14.2826 1.86318V13.2902C14.2826 14.0802 14.9226 14.7192 15.7116 14.7192H27.1376ZM78.4866 31.9302C79.623 31.9302 80.713 32.3816 81.5165 33.1852C82.3201 33.9888 82.7716 35.0787 82.7716 36.2152C82.7716 37.3516 82.3201 38.4415 81.5165 39.2451C80.713 40.0487 79.623 40.5002 78.4866 40.5002H71.3456C70.2091 40.5002 69.1192 40.0487 68.3156 39.2451C67.512 38.4415 67.0606 37.3516 67.0606 36.2152C67.0606 35.0787 67.512 33.9888 68.3156 33.1852C69.1192 32.3816 70.2091 31.9302 71.3456 31.9302H78.4866ZM74.2016 29.0732C82.0906 29.0732 88.4856 22.6782 88.4856 14.7902C88.489 12.3671 87.8732 9.98339 86.6966 7.86518L89.0566 5.50518C89.3284 5.23322 89.544 4.91037 89.6911 4.55508C89.8382 4.19978 89.9138 3.819 89.9137 3.43448C89.9136 3.04995 89.8378 2.6692 89.6906 2.31398C89.5433 1.95876 89.3276 1.63602 89.0556 1.36418C88.7836 1.09235 88.4608 0.87674 88.1055 0.729673C87.7502 0.582607 87.3694 0.506961 86.9849 0.507053C86.6004 0.507146 86.2196 0.582976 85.8644 0.730215C85.5092 0.877453 85.1864 1.09321 84.9146 1.36518L82.8546 3.42518C80.3694 1.52709 77.3278 0.501151 74.2006 0.506183C66.3136 0.507183 59.9196 6.90018 59.9196 14.7902C59.9196 22.6782 66.3136 29.0732 74.2016 29.0732ZM118.481 14.7902C118.481 22.6782 112.086 29.0732 104.197 29.0732C96.3086 29.0732 89.9136 22.6782 89.9136 14.7902C89.9136 6.90018 96.3086 0.507183 104.197 0.507183C112.086 0.507183 118.481 6.90118 118.481 14.7902Z" fill="url(#paint0_linear_58899_24714)"/>
</g>
<defs>
<linearGradient id="paint0_linear_58899_24714" x1="-0.000401633" y1="16.5002" x2="119" y2="16.5002" gradientUnits="userSpaceOnUse">
<stop stop-color="#64C2DB"/>
<stop offset="0.307" stop-color="#7476ED"/>
<stop offset="0.604" stop-color="#C994DF"/>
<stop offset="1" stop-color="#E56F8C"/>
</linearGradient>
<clipPath id="clip0_58899_24714">
<rect width="125" height="40" fill="white" transform="translate(0 0.5)"/>
</clipPath>
</defs>
</svg>
