<svg width="56" height="41" viewBox="0 0 56 41" fill="none" xmlns="http://www.w3.org/2000/svg">
<path d="M4.56137 36.7571V28.6079H3.23047V36.7571H4.56137Z" fill="url(#paint0_linear_58899_24728)"/>
<path d="M5.37695 34.0407C5.37695 35.7056 6.48969 36.8885 8.18057 36.8885C9.87144 36.8885 10.9842 35.7056 10.9842 34.0407C10.9842 32.3758 9.87144 31.1929 8.18057 31.1929C6.48969 31.1929 5.37695 32.3758 5.37695 34.0407ZM6.71875 34.0407C6.71875 33.0658 7.29695 32.3868 8.18057 32.3868C9.06418 32.3868 9.64238 33.0658 9.64238 34.0407C9.64238 35.0045 9.06418 35.6946 8.18057 35.6946C7.29695 35.6946 6.71875 35.0045 6.71875 34.0407Z" fill="url(#paint1_linear_58899_24728)"/>
<path d="M11.4316 33.9311C11.4316 35.5084 12.4462 36.6475 13.9625 36.6475C14.748 36.6475 15.4243 36.3299 15.7625 35.8041V36.7242C15.7625 37.6114 15.2061 38.2029 14.2789 38.2029C13.4498 38.2029 12.8825 37.7976 12.8062 37.0857H11.4644C11.6389 38.4986 12.7189 39.4187 14.2025 39.4187C15.948 39.4187 17.0607 38.2686 17.0607 36.4832V31.3462H15.8825L15.8062 32.08C15.4789 31.5105 14.8025 31.1709 14.0061 31.1709C12.468 31.1709 11.4316 32.3429 11.4316 33.9311ZM12.7844 33.8983C12.7844 33.0001 13.3516 32.3429 14.1916 32.3429C15.108 32.3429 15.7189 33.0111 15.7189 33.8983C15.7189 34.7964 15.108 35.4865 14.1916 35.4865C13.3625 35.4865 12.7844 34.8074 12.7844 33.8983Z" fill="url(#paint2_linear_58899_24728)"/>
<path d="M17.7188 34.0407C17.7188 35.7056 18.8315 36.8885 20.5224 36.8885C22.2132 36.8885 23.326 35.7056 23.326 34.0407C23.326 32.3758 22.2132 31.1929 20.5224 31.1929C18.8315 31.1929 17.7188 32.3758 17.7188 34.0407ZM19.0605 34.0407C19.0605 33.0658 19.6387 32.3868 20.5224 32.3868C21.406 32.3868 21.9842 33.0658 21.9842 34.0407C21.9842 35.0045 21.406 35.6946 20.5224 35.6946C19.6387 35.6946 19.0605 35.0045 19.0605 34.0407Z" fill="url(#paint3_linear_58899_24728)"/>
<path d="M24.7659 30.2401C25.2023 30.2401 25.5623 29.8895 25.5623 29.4405C25.5623 29.0023 25.2023 28.6519 24.7659 28.6519C24.3187 28.6519 23.9805 29.0023 23.9805 29.4405C23.9805 29.8895 24.3187 30.2401 24.7659 30.2401ZM24.1005 36.7572H25.4314V31.3463H24.1005V36.7572Z" fill="url(#paint4_linear_58899_24728)"/>
<path d="M26.5977 39.2656H27.8958V36.0125C28.234 36.5711 28.9649 36.8997 29.7722 36.8997C31.3649 36.8997 32.314 35.6729 32.2921 33.9861C32.2594 32.2884 31.2885 31.1821 29.7612 31.1821C28.9431 31.1821 28.2012 31.5436 27.874 32.1679L27.7976 31.3465H26.5977V39.2656ZM27.9503 34.0519C27.9503 33.077 28.5395 32.3979 29.4667 32.3979C30.394 32.3979 30.9503 33.088 30.9503 34.0519C30.9503 35.0157 30.394 35.6948 29.4667 35.6948C28.5395 35.6948 27.9503 35.0267 27.9503 34.0519Z" fill="url(#paint5_linear_58899_24728)"/>
<path d="M32.6309 35.1362C32.6745 36.2096 33.5036 36.8997 34.7908 36.8997C36.0563 36.8997 36.9181 36.2206 36.9181 35.1691C36.9181 34.3914 36.4381 33.8656 35.5545 33.6466L34.6054 33.4166C34.2018 33.307 33.929 33.1647 33.929 32.8142C33.929 32.4417 34.2236 32.1789 34.7036 32.1789C35.2054 32.1789 35.5327 32.4636 35.5327 32.9347H36.7436C36.6999 31.8612 35.9036 31.1821 34.7363 31.1821C33.58 31.1821 32.7181 31.8612 32.7181 32.8908C32.7181 33.5919 33.1218 34.1723 34.1582 34.4462L35.0963 34.6872C35.4454 34.7858 35.6636 34.95 35.6636 35.2567C35.6636 35.6839 35.26 35.881 34.769 35.881C34.18 35.881 33.8418 35.6072 33.8418 35.1362H32.6309Z" fill="url(#paint6_linear_58899_24728)"/>
<path d="M39.6777 36.8994C40.4086 36.8994 41.1067 36.5599 41.4231 36.056L41.5104 36.7571H42.754V31.3462H41.4231V34.1831C41.4231 35.1579 41.0522 35.7055 40.1795 35.7055C39.5031 35.7055 39.034 35.3769 39.034 34.2597V31.3462H37.7031V34.7307C37.7031 36.0232 38.4013 36.8994 39.6777 36.8994Z" fill="url(#paint7_linear_58899_24728)"/>
<path d="M45.2606 36.7573V33.6466C45.2606 32.7703 45.7733 32.3541 46.406 32.3541C47.0387 32.3541 47.4533 32.7594 47.4533 33.5261V36.7573H48.7515V33.6575C48.7515 32.7703 49.2532 32.3541 49.886 32.3541C50.5296 32.3541 50.9442 32.7594 50.9442 33.5261V36.7573H52.2314V33.2194C52.2314 31.9708 51.5441 31.1821 50.2351 31.1821C49.4169 31.1821 48.7733 31.5765 48.5115 32.2117C48.2169 31.5765 47.6278 31.1821 46.7333 31.1821C46.1006 31.1821 45.5333 31.4779 45.2169 31.9598L45.1515 31.3465H43.9297V36.7573H45.2606Z" fill="url(#paint8_linear_58899_24728)"/>
<path d="M24.4922 21.2308C22.7389 24.3983 19.169 25.9053 15.5592 25.9053H1.07617C16.1531 24.0134 26.6531 16.4458 27.9992 5.90527C29.3454 16.4458 39.8454 24.0134 54.9223 25.9053H40.4393C36.8295 25.9053 33.2596 24.3983 31.5062 21.2308C29.6085 17.8026 28.3994 13.9233 27.9992 9.68906C27.5991 13.9233 26.39 17.8026 24.4922 21.2308Z" fill="url(#paint9_linear_58899_24728)"/>
<path d="M16.2112 20.1115C15.3654 20.5895 14.4758 21.0385 13.5442 21.4567C13.0151 19.6218 12.8204 17.6966 12.9757 15.7789C13.1811 13.2419 13.9927 10.796 15.3387 8.65797C16.6847 6.51997 18.5233 4.75575 20.6919 3.52164C22.8605 2.28753 25.2921 1.6216 27.7713 1.58285C30.2504 1.54409 32.7005 2.13371 34.9047 3.29947C37.1089 4.46522 38.9991 6.17111 40.4078 8.26608C41.8165 10.3611 42.7003 12.7804 42.9809 15.3098C43.2103 17.3787 43.0304 19.4691 42.4573 21.4567C41.5257 21.0385 40.6361 20.5894 39.7903 20.1114C40.1469 18.6584 40.2468 17.1467 40.0807 15.6489C39.8544 13.6092 39.1417 11.6582 38.0058 9.96889C36.8698 8.27954 35.3456 6.90387 33.5681 5.96381C31.7907 5.02374 29.8148 4.54828 27.8157 4.57953C25.8165 4.61078 23.8557 5.14778 22.107 6.14295C20.3582 7.13814 18.8754 8.56078 17.7901 10.2849C16.7047 12.009 16.0502 13.9813 15.8846 16.0272C15.7732 17.4024 15.885 18.7822 16.2112 20.1115Z" fill="url(#paint10_linear_58899_24728)"/>
<defs>
<linearGradient id="paint0_linear_58899_24728" x1="3.89592" y1="28.6079" x2="3.89592" y2="36.7571" gradientUnits="userSpaceOnUse">
<stop stop-color="#1A1938"/>
<stop offset="1" stop-color="#22AAFF"/>
</linearGradient>
<linearGradient id="paint1_linear_58899_24728" x1="8.18056" y1="31.1929" x2="8.18056" y2="36.8885" gradientUnits="userSpaceOnUse">
<stop stop-color="#1A1938"/>
<stop offset="1" stop-color="#22AAFF"/>
</linearGradient>
<linearGradient id="paint2_linear_58899_24728" x1="14.2462" y1="31.1709" x2="14.2462" y2="39.4187" gradientUnits="userSpaceOnUse">
<stop stop-color="#1A1938"/>
<stop offset="1" stop-color="#22AAFF"/>
</linearGradient>
<linearGradient id="paint3_linear_58899_24728" x1="20.5224" y1="31.1929" x2="20.5224" y2="36.8885" gradientUnits="userSpaceOnUse">
<stop stop-color="#1A1938"/>
<stop offset="1" stop-color="#22AAFF"/>
</linearGradient>
<linearGradient id="paint4_linear_58899_24728" x1="24.7714" y1="28.6519" x2="24.7714" y2="36.7572" gradientUnits="userSpaceOnUse">
<stop stop-color="#1A1938"/>
<stop offset="1" stop-color="#22AAFF"/>
</linearGradient>
<linearGradient id="paint5_linear_58899_24728" x1="29.4451" y1="31.1821" x2="29.4451" y2="39.2656" gradientUnits="userSpaceOnUse">
<stop stop-color="#1A1938"/>
<stop offset="1" stop-color="#22AAFF"/>
</linearGradient>
<linearGradient id="paint6_linear_58899_24728" x1="34.7745" y1="31.1821" x2="34.7745" y2="36.8997" gradientUnits="userSpaceOnUse">
<stop stop-color="#1A1938"/>
<stop offset="1" stop-color="#22AAFF"/>
</linearGradient>
<linearGradient id="paint7_linear_58899_24728" x1="40.2286" y1="31.3462" x2="40.2286" y2="36.8994" gradientUnits="userSpaceOnUse">
<stop stop-color="#1A1938"/>
<stop offset="1" stop-color="#22AAFF"/>
</linearGradient>
<linearGradient id="paint8_linear_58899_24728" x1="48.0806" y1="31.1821" x2="48.0806" y2="36.7573" gradientUnits="userSpaceOnUse">
<stop stop-color="#1A1938"/>
<stop offset="1" stop-color="#22AAFF"/>
</linearGradient>
<linearGradient id="paint9_linear_58899_24728" x1="27.9992" y1="5.90527" x2="27.9992" y2="25.9053" gradientUnits="userSpaceOnUse">
<stop stop-color="#1A1938"/>
<stop offset="1" stop-color="#22AAFF"/>
</linearGradient>
<linearGradient id="paint10_linear_58899_24728" x1="28.0007" y1="1.58105" x2="28.0007" y2="21.4567" gradientUnits="userSpaceOnUse">
<stop stop-color="#1A1938"/>
<stop offset="1" stop-color="#22AAFF"/>
</linearGradient>
</defs>
</svg>
