<svg width="48" height="48" viewBox="0 0 48 48" fill="none" xmlns="http://www.w3.org/2000/svg">
<path d="M8 28H12.79C13.378 28 13.958 28.132 14.484 28.388L18.568 30.364C19.094 30.618 19.674 30.75 20.264 30.75H22.348C24.364 30.75 26 32.332 26 34.284C26 34.364 25.946 34.432 25.868 34.454L20.786 35.86C19.8741 36.112 18.9017 36.0238 18.05 35.612L13.684 33.5M16.792 5.10404C19.74 3.27604 22.316 4.01204 23.862 5.18604C24.496 5.66604 24.814 5.90604 25 5.90604C25.186 5.90604 25.504 5.66604 26.138 5.18604C27.684 4.01204 30.258 3.27604 33.208 5.10404C37.08 7.50404 37.956 15.416 29.028 22.092C27.326 23.364 26.476 24 25 24C23.524 24 22.674 23.364 20.974 22.092C12.044 15.416 12.92 7.50204 16.792 5.10404Z" stroke="url(#paint0_linear_56817_2134)" stroke-width="1.5" stroke-linecap="round" stroke-linejoin="round"/>
<path d="M26 33.0001L35.186 30.1781C35.9857 29.9327 36.8425 29.9462 37.6341 30.2166C38.4257 30.4871 39.1116 31.0007 39.594 31.6841C40.332 32.7041 40.032 34.1681 38.956 34.7881L23.926 43.4621C23.456 43.734 22.9356 43.9074 22.3965 43.9717C21.8573 44.036 21.3107 43.9898 20.79 43.8361L8 40.0401" stroke="url(#paint1_linear_56817_2134)" stroke-width="1.5" stroke-linecap="round" stroke-linejoin="round"/>
<defs>
<linearGradient id="paint0_linear_56817_2134" x1="21.9999" y1="3.99902" x2="21.9999" y2="36.0009" gradientUnits="userSpaceOnUse">
<stop stop-color="#1A1938"/>
<stop offset="1" stop-color="#22AAFF"/>
</linearGradient>
<linearGradient id="paint1_linear_56817_2134" x1="24.0001" y1="30.0034" x2="24.0001" y2="43.9998" gradientUnits="userSpaceOnUse">
<stop stop-color="#1A1938"/>
<stop offset="1" stop-color="#22AAFF"/>
</linearGradient>
</defs>
</svg>
