<svg width="48" height="48" viewBox="0 0 48 48" fill="none" xmlns="http://www.w3.org/2000/svg">
<path d="M27.7729 5.38989L31.2479 7.28989L29.1029 11.2119L25.6289 9.31189L27.7729 5.38989Z" fill="#5D6873" stroke="#22AAFF" stroke-width="0.5" stroke-linecap="round" stroke-linejoin="round"/>
<path d="M20.7197 12.8899C20.7197 14.2744 21.2697 15.6021 22.2486 16.581C23.2276 17.56 24.5553 18.1099 25.9397 18.1099C27.3242 18.1099 28.6519 17.56 29.6308 16.581C30.6098 15.6021 31.1597 14.2744 31.1597 12.8899C31.1597 11.5055 30.6098 10.1778 29.6308 9.19882C28.6519 8.21988 27.3242 7.66992 25.9397 7.66992C24.5553 7.66992 23.2276 8.21988 22.2486 9.19882C21.2697 10.1778 20.7197 11.5055 20.7197 12.8899Z" fill="#6E8693"/>
<path d="M28.4399 8.31011C27.2263 7.64685 25.7991 7.49231 24.4716 7.88042C23.1442 8.26852 22.025 9.16755 21.3599 10.3801C21.1423 10.8005 20.9809 11.2477 20.8799 11.7101C21.5296 10.6643 22.53 9.88344 23.7023 9.50715C24.8746 9.13087 26.1425 9.18361 27.2796 9.65597C28.4166 10.1283 29.3487 10.9895 29.9093 12.0857C30.4699 13.1819 30.6225 14.4417 30.3399 15.6401C30.4028 15.5612 30.4596 15.4776 30.5099 15.3901C30.8396 14.7895 31.0477 14.1297 31.1221 13.4486C31.1965 12.7675 31.1358 12.0784 30.9436 11.4207C30.7513 10.7631 30.4312 10.1498 30.0015 9.61603C29.5719 9.08227 29.0412 8.63849 28.4399 8.31011Z" fill="#00527E"/>
<path d="M20.7197 12.8899C20.7197 14.2744 21.2697 15.6021 22.2486 16.581C23.2276 17.56 24.5553 18.1099 25.9397 18.1099C27.3242 18.1099 28.6519 17.56 29.6308 16.581C30.6098 15.6021 31.1597 14.2744 31.1597 12.8899C31.1597 11.5055 30.6098 10.1778 29.6308 9.19882C28.6519 8.21988 27.3242 7.66992 25.9397 7.66992C24.5553 7.66992 23.2276 8.21988 22.2486 9.19882C21.2697 10.1778 20.7197 11.5055 20.7197 12.8899Z" stroke="#22AAFF" stroke-width="0.5" stroke-linecap="round" stroke-linejoin="round"/>
<path d="M22.4 37.28C19.3 38.28 14.67 36.64 13.63 33.53C13.2836 33.8301 13.0014 34.1971 12.8004 34.6089C12.5995 35.0208 12.4838 35.469 12.4605 35.9267C12.4371 36.3844 12.5065 36.8421 12.6646 37.2723C12.8226 37.7025 13.0659 38.0963 13.38 38.43C14.6835 39.7269 16.3318 40.6226 18.1291 41.0108C19.9264 41.399 21.7974 41.2633 23.52 40.62L22.4 37.28Z" fill="white"/>
<path d="M20.1997 37.58C19.0382 37.5642 17.8953 37.2862 16.8564 36.7667C15.8174 36.2472 14.9092 35.4997 14.1997 34.58C13.7936 34.4894 13.393 34.3759 12.9997 34.24C12.6287 34.7968 12.4307 35.4509 12.4307 36.12C12.4307 36.7891 12.6287 37.4432 12.9997 38C15.3684 38.7605 17.9355 38.6107 20.1997 37.58Z" fill="#F0F0F0"/>
<path d="M22.4 37.28C19.3 38.28 14.67 36.64 13.63 33.53C13.2836 33.8301 13.0014 34.1971 12.8004 34.6089C12.5995 35.0208 12.4838 35.469 12.4605 35.9267C12.4371 36.3844 12.5065 36.8421 12.6646 37.2723C12.8226 37.7025 13.0659 38.0963 13.38 38.43C14.6835 39.7269 16.3318 40.6226 18.1291 41.0108C19.9264 41.399 21.7974 41.2633 23.52 40.62L22.4 37.28Z" stroke="#22AAFF" stroke-width="0.5" stroke-linecap="round" stroke-linejoin="round"/>
<path opacity="0.15" d="M9.82031 45.1501C9.82031 45.6407 11.3143 46.1113 13.9735 46.4582C16.6328 46.8051 20.2395 47 24.0003 47C27.7611 47 31.3678 46.8051 34.0271 46.4582C36.6864 46.1113 38.1803 45.6407 38.1803 45.1501C38.1803 44.6594 36.6864 44.1888 34.0271 43.8419C31.3678 43.495 27.7611 43.3 24.0003 43.3C20.2395 43.3 16.6328 43.495 13.9735 43.8419C11.3143 44.1888 9.82031 44.6594 9.82031 45.1501Z" fill="#22AAFF"/>
<path d="M24.8896 20.22C26.9345 20.22 28.8955 21.0323 30.3414 22.4782C31.7873 23.9241 32.5996 25.8852 32.5996 27.93C32.5996 29.9748 31.7873 31.9359 30.3414 33.3818C28.8955 34.8277 26.9345 35.64 24.8896 35.64V41.11C28.3852 41.11 31.7376 39.7214 34.2093 37.2497C36.681 34.7779 38.0696 31.4256 38.0696 27.93C38.0696 24.4344 36.681 21.0821 34.2093 18.6103C31.7376 16.1386 28.3852 14.75 24.8896 14.75V20.22Z" fill="white"/>
<path d="M36.68 22.0601C35.7139 20.1194 34.284 18.4471 32.517 17.1912C30.75 15.9352 28.7005 15.1346 26.55 14.8601C25.5455 16.0047 24.9942 17.4772 25 19.0001C24.999 19.4197 25.0392 19.8384 25.12 20.2501C26.6446 20.2889 28.1234 20.779 29.3694 21.6583C30.6154 22.5376 31.5726 23.7667 32.12 25.1901C33.07 25.0554 33.976 24.7028 34.7671 24.1598C35.5582 23.6168 36.2129 22.8982 36.68 22.0601Z" fill="#E0E0E0"/>
<path d="M24.8896 20.22C26.9345 20.22 28.8955 21.0323 30.3414 22.4782C31.7873 23.9241 32.5996 25.8852 32.5996 27.93C32.5996 29.9748 31.7873 31.9359 30.3414 33.3818C28.8955 34.8277 26.9345 35.64 24.8896 35.64V41.11C28.3852 41.11 31.7376 39.7214 34.2093 37.2497C36.681 34.7779 38.0696 31.4256 38.0696 27.93C38.0696 24.4344 36.681 21.0821 34.2093 18.6103C31.7376 16.1386 28.3852 14.75 24.8896 14.75V20.22Z" stroke="#22AAFF" stroke-width="0.5" stroke-linecap="round" stroke-linejoin="round"/>
<path d="M21.4074 8.80005L31.8224 14.495L24.9804 27.007L14.5654 21.312L21.4074 8.80005Z" fill="white"/>
<path d="M26.8904 23.5101C26.7302 23.7954 26.4646 24.0065 26.1505 24.0981C25.8364 24.1897 25.4989 24.1545 25.2104 24.0001L17.0004 19.4801C16.72 19.3255 16.5109 19.0678 16.4176 18.7616C16.3242 18.4553 16.3539 18.1248 16.5004 17.8401L15.2004 20.2301C15.1215 20.3716 15.0716 20.5274 15.0535 20.6884C15.0354 20.8494 15.0496 21.0124 15.0952 21.1678C15.1409 21.3233 15.217 21.4681 15.3192 21.5938C15.4214 21.7195 15.5476 21.8237 15.6904 21.9001L23.9404 26.4101C24.0819 26.489 24.2377 26.5389 24.3987 26.557C24.5597 26.575 24.7227 26.5609 24.8782 26.5152C25.0336 26.4696 25.1784 26.3935 25.3042 26.2913C25.4299 26.1891 25.534 26.0629 25.6104 25.9201L31.2704 15.5801L26.8904 23.5101Z" fill="#E0E0E0"/>
<path d="M21.4074 8.80005L31.8224 14.495L24.9804 27.007L14.5654 21.312L21.4074 8.80005Z" stroke="#22AAFF" stroke-width="0.5" stroke-linecap="round" stroke-linejoin="round"/>
<path d="M18.2998 41.11C18.2998 39.3622 18.9941 37.686 20.23 36.4502C21.4658 35.2143 23.142 34.52 24.8898 34.52C26.6376 34.52 28.3138 35.2143 29.5496 36.4502C30.7855 37.686 31.4798 39.3622 31.4798 41.11H18.2998Z" fill="#6E8693"/>
<path d="M24.8898 36.8C26.2339 36.8033 27.5447 37.2181 28.646 37.9886C29.7472 38.7592 30.5861 39.8485 31.0498 41.11H31.4798C31.4798 39.3622 30.7855 37.686 29.5496 36.4502C28.3138 35.2143 26.6376 34.52 24.8898 34.52C23.142 34.52 21.4658 35.2143 20.23 36.4502C18.9941 37.686 18.2998 39.3622 18.2998 41.11H18.7298C19.1923 39.8477 20.0308 38.7576 21.1324 37.9868C22.2339 37.2161 23.5454 36.8019 24.8898 36.8Z" fill="#00527E"/>
<path d="M18.2998 41.11C18.2998 39.3622 18.9941 37.686 20.23 36.4502C21.4658 35.2143 23.142 34.52 24.8898 34.52C26.6376 34.52 28.3138 35.2143 29.5496 36.4502C30.7855 37.686 31.4798 39.3622 31.4798 41.11H18.2998Z" stroke="#22AAFF" stroke-width="0.5" stroke-linecap="round" stroke-linejoin="round"/>
<path d="M12.9404 41.1101H35.0604V44.5001H12.9404V41.1101Z" fill="white"/>
<path d="M33.8297 42.89H14.1697C13.904 42.8907 13.6455 42.8039 13.434 42.643C13.2226 42.4822 13.0699 42.2562 12.9997 42C12.9613 42.1097 12.9377 42.224 12.9297 42.34V43.27C12.9297 43.5962 13.0593 43.9091 13.2899 44.1397C13.5206 44.3704 13.8335 44.5 14.1597 44.5H33.8297C34.1559 44.5 34.4688 44.3704 34.6994 44.1397C34.9301 43.9091 35.0597 43.5962 35.0597 43.27V42.34C35.0549 42.2245 35.0347 42.1102 34.9997 42C34.9294 42.2562 34.7768 42.4822 34.5653 42.643C34.3539 42.8039 34.0954 42.8907 33.8297 42.89Z" fill="#F0F0F0"/>
<path d="M12.9404 41.1101H35.0604V44.5001H12.9404V41.1101Z" stroke="#22AAFF" stroke-width="0.5" stroke-linecap="round" stroke-linejoin="round"/>
<path d="M10.8754 30.6559L18.6584 34.7629L17.4734 37.0099L9.69043 32.9029L10.8754 30.6559ZM15.9684 22.0699L23.5844 26.2349L22.4514 28.3049L14.8364 24.1409L15.9684 22.0699ZM28.1604 2.56494L33.4324 5.44794L32.1524 7.79094L26.8784 4.90694L28.1604 2.56494Z" fill="#1A1938" stroke="#22AAFF" stroke-width="0.5" stroke-linecap="round" stroke-linejoin="round"/>
<path d="M18.5701 28.8299L16.4901 27.6899C16.2315 27.5521 16.0324 27.3244 15.9301 27.0499L14.8301 24.1499L22.4501 28.3099L19.4501 28.9499C19.1519 29.019 18.8388 28.9763 18.5701 28.8299Z" fill="#656769" stroke="#22AAFF" stroke-width="0.5" stroke-linecap="round" stroke-linejoin="round"/>
<path d="M26.9102 18.98C26.9102 20.1045 27.3569 21.183 28.152 21.9781C28.9472 22.7733 30.0256 23.22 31.1502 23.22C32.2747 23.22 33.3531 22.7733 34.1483 21.9781C34.9434 21.183 35.3902 20.1045 35.3902 18.98C35.3902 17.8555 34.9434 16.777 34.1483 15.9819C33.3531 15.1867 32.2747 14.74 31.1502 14.74C30.0256 14.74 28.9472 15.1867 28.152 15.9819C27.3569 16.777 26.9102 17.8555 26.9102 18.98Z" fill="#1A1938"/>
<path d="M31.1499 16.5099C32.1202 16.5108 33.0609 16.8435 33.8158 17.4529C34.5708 18.0624 35.0945 18.9117 35.2999 19.8599C35.3608 19.5706 35.391 19.2756 35.3899 18.9799C35.3371 17.8924 34.8678 16.8668 34.0794 16.1158C33.291 15.3647 32.2438 14.9458 31.1549 14.9458C30.0661 14.9458 29.0189 15.3647 28.2305 16.1158C27.4421 16.8668 26.9728 17.8924 26.9199 18.9799C26.9189 19.2756 26.9491 19.5706 27.0099 19.8599C27.215 18.9134 27.7373 18.0653 28.4902 17.4561C29.2431 16.8469 30.1814 16.5131 31.1499 16.5099Z" fill="#BDBEC0"/>
<path d="M26.9102 18.98C26.9102 20.1045 27.3569 21.183 28.152 21.9781C28.9472 22.7733 30.0256 23.22 31.1502 23.22C32.2747 23.22 33.3531 22.7733 34.1483 21.9781C34.9434 21.183 35.3902 20.1045 35.3902 18.98C35.3902 17.8555 34.9434 16.777 34.1483 15.9819C33.3531 15.1867 32.2747 14.74 31.1502 14.74C30.0256 14.74 28.9472 15.1867 28.152 15.9819C27.3569 16.777 26.9102 17.8555 26.9102 18.98Z" stroke="#22AAFF" stroke-width="0.5" stroke-linecap="round" stroke-linejoin="round"/>
<path d="M29.6104 18.9799C29.6104 19.3884 29.7726 19.7801 30.0614 20.0689C30.3502 20.3577 30.7419 20.5199 31.1504 20.5199C31.5588 20.5199 31.9505 20.3577 32.2393 20.0689C32.5281 19.7801 32.6904 19.3884 32.6904 18.9799C32.6904 18.5715 32.5281 18.1798 32.2393 17.891C31.9505 17.6022 31.5588 17.4399 31.1504 17.4399C30.7419 17.4399 30.3502 17.6022 30.0614 17.891C29.7726 18.1798 29.6104 18.5715 29.6104 18.9799Z" fill="white" stroke="#22AAFF" stroke-width="0.5" stroke-linecap="round" stroke-linejoin="round"/>
</svg>
