<svg width="48" height="48" viewBox="0 0 48 48" fill="none" xmlns="http://www.w3.org/2000/svg">
<path d="M26.5327 4.53586L13.4347 12.3677C12.9005 12.2039 12.3448 12.1208 11.7861 12.121C8.5905 12.121 6 14.8037 6 18.1131C6 19.4768 6.43988 20.7341 7.18069 21.7411C7.08403 21.6098 6.99276 21.4745 6.90713 21.3357L13.9771 34.0196L13.9642 34.0718C13.8118 34.7067 13.7351 35.3575 13.7356 36.0105L13.7368 40.0049L9.87825 40.0052V44H34V40L29.1664 40.0049L29.1653 36.0105C29.1653 32.813 27.3516 30.0542 24.7314 28.7774L24.3154 28.59L18.67 18.4631L28.5242 12.5708L32.8218 20.2888C32.642 20.9518 32.6816 21.678 32.9738 22.3404L33.1015 22.5972C33.2955 22.9449 33.5466 23.2373 33.8354 23.4687L33.838 27.5607L33.8346 27.576L37.5605 28.61L38.0597 26.6806L35.7668 26.043L35.767 24.0913C36.2063 24.0664 36.6466 23.9371 37.0536 23.6938C37.4842 23.4363 37.8267 23.0815 38.0702 22.6716L39.7589 23.6821L39.1507 26.041L41.0137 26.5579L42 22.7212L41.9957 22.7207L41.9989 22.7145L38.4599 20.5965C38.4025 20.2471 38.2849 19.9103 38.1125 19.601C37.663 18.7949 36.9065 18.2868 36.0842 18.144L31.6658 10.221C32.458 8.99574 32.5621 7.36139 31.8021 5.99808C30.7369 4.08745 28.3777 3.4327 26.5327 4.53586ZM21.4505 32.0157C23.484 32.0157 25.15 33.6453 25.2972 35.7123L25.3078 36.0105V40.0052H17.593V36.0105C17.593 33.9045 19.1666 32.1792 21.1626 32.0266L21.4505 32.0157ZM15.9757 22.246L16.1893 22.0007L19.6662 28.2357L19.7398 28.218C18.5655 28.4933 17.4928 29.046 16.5893 29.8061L16.253 30.1061L12.8504 24.0042L12.7978 24.014C14.0383 23.7874 15.1425 23.1516 15.9757 22.246ZM11.7861 16.1158C12.8513 16.1158 13.7148 17.01 13.7148 18.1131C13.7148 19.2162 12.8513 20.1105 11.7861 20.1105C10.7209 20.1105 9.85744 19.2163 9.85744 18.1131C9.85744 17.01 10.7209 16.1158 11.7861 16.1158ZM28.2251 7.04227C28.7577 7.04227 29.1894 7.48945 29.1894 8.04099C29.1894 8.59252 28.7577 9.0397 28.2251 9.0397C27.6925 9.0397 27.2608 8.59252 27.2608 8.04099C27.2608 7.48945 27.6925 7.04227 28.2251 7.04227Z" fill="url(#paint0_linear_56817_2157)"/>
<defs>
<linearGradient id="paint0_linear_56817_2157" x1="24" y1="4" x2="24" y2="44" gradientUnits="userSpaceOnUse">
<stop stop-color="#1A1938"/>
<stop offset="1" stop-color="#22AAFF"/>
</linearGradient>
</defs>
</svg>
