<svg width="40" height="29" viewBox="0 0 40 29" fill="none" xmlns="http://www.w3.org/2000/svg">
<path d="M20.0001 16.0002C19.0801 16.0002 18.2861 15.6662 17.6181 14.9982C16.9501 14.3302 16.6161 13.5362 16.6161 12.6162C16.6161 11.6962 16.9494 10.9015 17.6161 10.2322C18.2854 9.56554 19.0801 9.23221 20.0001 9.23221C20.9201 9.23221 21.7141 9.56554 22.3821 10.2322C23.0501 10.8989 23.3841 11.6935 23.3841 12.6162C23.3841 13.5362 23.0508 14.3302 22.3841 14.9982C21.7148 15.6662 20.9201 16.0002 20.0001 16.0002ZM2.04009 7.44021V23.7402C2.32542 24.3522 2.96809 24.9062 3.96809 25.4022C4.96809 25.8982 6.18409 26.2682 7.61609 26.5122V9.66021C6.31875 9.41621 5.20675 9.10954 4.28009 8.74021C3.35209 8.36821 2.60542 7.93354 2.04009 7.43621M37.9601 7.42421C37.3947 7.92154 36.6508 8.35554 35.7281 8.72621C34.8054 9.09687 33.6908 9.40421 32.3841 9.64821V26.5082C33.8161 26.2655 35.0321 25.8962 36.0321 25.4002C37.0321 24.9042 37.6754 24.3495 37.9621 23.7362L37.9601 7.42421ZM0.0400858 23.9622V4.80821C0.0400858 3.21487 1.71342 2.01754 5.06009 1.21621C8.40675 0.41354 13.3868 0.012207 20.0001 0.012207C26.6134 0.012207 31.5934 0.41354 34.9401 1.21621C38.2868 2.01887 39.9601 3.21621 39.9601 4.80821V23.9622C39.9094 25.0049 39.2948 25.9302 38.1161 26.7382C36.9361 27.5462 35.2534 28.1822 33.0681 28.6462C32.3561 28.8129 31.7308 28.6555 31.1921 28.1742C30.6534 27.6942 30.3841 27.0975 30.3841 26.3842V10.1462C30.3841 9.51021 30.5841 8.94687 30.9841 8.45621C31.3841 7.96421 31.9021 7.64821 32.5381 7.50821C33.9048 7.17221 35.0274 6.78287 35.9061 6.34021C36.7847 5.89754 37.4201 5.40221 37.8121 4.85421C36.7628 3.90354 34.7294 3.19021 31.7121 2.71421C28.6948 2.23821 24.7908 2.00021 20.0001 2.00021C15.1068 2.00021 11.0874 2.25754 7.94209 2.77221C4.79542 3.28554 2.87742 3.97954 2.18809 4.85421C2.52942 5.40354 3.13942 5.90087 4.01809 6.34621C4.89542 6.79287 6.04342 7.18421 7.46209 7.52021C8.09809 7.66821 8.61609 7.98421 9.01609 8.46821C9.41609 8.95221 9.61609 9.51154 9.61609 10.1462V26.3862C9.61609 27.0982 9.34675 27.6882 8.80809 28.1562C8.26942 28.6229 7.64342 28.7862 6.93009 28.6462C4.74609 28.1822 3.06409 27.5462 1.88409 26.7382C0.705419 25.9315 0.0920858 25.0062 0.0400858 23.9622ZM20.0001 17.6922C22.0161 17.6922 23.6481 18.0702 24.8961 18.8262C26.1441 19.5822 26.7688 20.5775 26.7701 21.8122C26.7701 22.0935 26.6808 22.3235 26.5021 22.5022C26.3234 22.6809 26.0934 22.7702 25.8121 22.7702H14.1881C13.9068 22.7702 13.6768 22.6809 13.4981 22.5022C13.3194 22.3235 13.2308 22.0935 13.2321 21.8122C13.2321 20.5762 13.8561 19.5802 15.1041 18.8242C16.3521 18.0682 17.9841 17.6909 20.0001 17.6922Z" fill="url(#paint0_linear_56825_2096)"/>
<defs>
<linearGradient id="paint0_linear_56825_2096" x1="19.9991" y1="0.012207" x2="19.9991" y2="28.7105" gradientUnits="userSpaceOnUse">
<stop stop-color="#1A1938"/>
<stop offset="1" stop-color="#22AAFF"/>
</linearGradient>
</defs>
</svg>
