<svg width="48" height="19" viewBox="0 0 48 19" fill="none" xmlns="http://www.w3.org/2000/svg">
<path fill-rule="evenodd" clip-rule="evenodd" d="M48.0005 6.4668C48.0005 4.55094 46.6101 2.91828 44.7187 2.61322C30.9952 0.39976 17.0058 0.39976 3.28233 2.61322C1.39091 2.91828 0.000488281 4.55094 0.000488281 6.4668V7.5104C0.000488281 10.2068 2.20585 13.4042 4.69007 14.4527C5.15244 14.6478 5.66064 14.7557 6.19404 14.7557C6.58454 14.7557 6.9435 14.9587 7.17667 15.2719C8.59062 17.1715 10.7621 18.4336 13.335 18.4336C16.7489 18.4336 19.6915 16.4301 20.9812 13.5577C21.5382 12.3172 22.6407 11.2716 24.0005 11.2716C25.3603 11.2716 26.4628 12.3172 27.0198 13.5577C28.3095 16.4301 31.2521 18.4336 34.666 18.4336C37.3465 18.4336 39.5913 17.0637 40.9977 15.0303C41.1145 14.8615 41.3043 14.7557 41.5095 14.7557C42.1722 14.7557 42.7987 14.6011 43.355 14.326C45.6859 13.1733 47.841 10.331 47.9939 7.7351C47.9983 7.6608 48.0005 7.5859 48.0005 7.5104V6.4668ZM27.1358 10.3189C27.1358 14.367 30.505 17.6393 34.6441 17.6393C38.7833 17.6393 41.7681 14.0099 41.7681 9.9618C41.7681 5.91358 39.4483 3.35547 34.2598 3.35547C29.2634 3.35547 27.1358 6.27067 27.1358 10.3189ZM13.3569 17.6393C17.496 17.6393 20.8652 14.367 20.8652 10.3189C20.8652 6.27067 18.7376 3.35547 13.7412 3.35547C8.55266 3.35547 6.23291 5.91358 6.23291 9.9618C6.23291 14.0099 9.21774 17.6393 13.3569 17.6393ZM42.4648 11.928C42.1147 12.6788 42.3526 13.5307 42.9961 13.8308C43.6397 14.1309 44.4452 13.7655 44.7953 13.0147C45.1454 12.2639 44.9075 11.412 44.264 11.1119C43.6204 10.8118 42.8149 11.1772 42.4648 11.928ZM4.79102 13.8308C5.43457 13.5307 5.67245 12.6788 5.32234 11.928C4.97224 11.1772 4.16672 10.8118 3.52316 11.1119C2.87961 11.412 2.64173 12.2639 2.99184 13.0147C3.34195 13.7655 4.14747 14.1309 4.79102 13.8308Z" fill="url(#paint0_linear_59003_24674)"/>
<defs>
<linearGradient id="paint0_linear_59003_24674" x1="24.0005" y1="0.953125" x2="24.0005" y2="18.4336" gradientUnits="userSpaceOnUse">
<stop stop-color="#1A1938"/>
<stop offset="1" stop-color="#22AAFF"/>
</linearGradient>
</defs>
</svg>
