<svg width="42" height="42" viewBox="0 0 42 42" fill="none" xmlns="http://www.w3.org/2000/svg">
<path d="M6.00049 28.5V27H3.00049V28.5C3.00049 31.2848 4.10674 33.9555 6.07587 35.9246C8.045 37.8938 10.7157 39 13.5005 39H18.0005V36H13.5005C11.5114 36 9.60371 35.2098 8.19719 33.8033C6.79066 32.3968 6.00049 30.4891 6.00049 28.5ZM33.0005 13.5V15H36.0005V13.5C36.0005 10.7152 34.8942 8.04451 32.9251 6.07538C30.956 4.10625 28.2853 3 25.5005 3H21.0005V6H25.5005C26.4854 6 27.4607 6.194 28.3706 6.57091C29.2806 6.94782 30.1073 7.50026 30.8038 8.1967C31.5002 8.89314 32.0527 9.71994 32.4296 10.6299C32.8065 11.5398 33.0005 12.5151 33.0005 13.5ZM13.5005 13.5H4.50049C3.30701 13.5 2.16242 13.9741 1.31851 14.818C0.474594 15.6619 0.000488281 16.8065 0.000488281 18V21H3.00049V18C3.00049 17.6022 3.15852 17.2206 3.43983 16.9393C3.72113 16.658 4.10266 16.5 4.50049 16.5H13.5005C13.8983 16.5 14.2798 16.658 14.5611 16.9393C14.8425 17.2206 15.0005 17.6022 15.0005 18V21H18.0005V18C18.0005 16.8065 17.5264 15.6619 16.6825 14.818C15.8386 13.9741 14.694 13.5 13.5005 13.5ZM9.00049 12C10.1872 12 11.3472 11.6481 12.3339 10.9888C13.3206 10.3295 14.0896 9.39246 14.5438 8.2961C14.9979 7.19975 15.1167 5.99335 14.8852 4.82946C14.6537 3.66557 14.0822 2.59648 13.2431 1.75736C12.404 0.918247 11.3349 0.346802 10.171 0.115291C9.00714 -0.11622 7.80074 0.00259969 6.70439 0.456725C5.60803 0.910851 4.67096 1.67989 4.01167 2.66658C3.35238 3.65328 3.00049 4.81331 3.00049 6C3.00049 7.5913 3.63263 9.11743 4.75785 10.2426C5.88307 11.3679 7.40919 12 9.00049 12ZM9.00049 3C9.59383 3 10.1739 3.17595 10.6672 3.50559C11.1605 3.83524 11.5451 4.30377 11.7721 4.85195C11.9992 5.40013 12.0586 6.00333 11.9428 6.58527C11.8271 7.16722 11.5414 7.70177 11.1218 8.12132C10.7023 8.54088 10.1677 8.8266 9.58576 8.94236C9.00382 9.05812 8.40062 8.9987 7.85244 8.77164C7.30426 8.54458 6.83572 8.16006 6.50608 7.66671C6.17644 7.17337 6.00049 6.59335 6.00049 6C6.00049 5.20435 6.31656 4.44129 6.87917 3.87868C7.44178 3.31607 8.20484 3 9.00049 3ZM37.5005 34.5H28.5005C27.307 34.5 26.1624 34.9741 25.3185 35.818C24.4746 36.6619 24.0005 37.8065 24.0005 39V42H27.0005V39C27.0005 38.6022 27.1585 38.2206 27.4398 37.9393C27.7211 37.658 28.1027 37.5 28.5005 37.5H37.5005C37.8983 37.5 38.2798 37.658 38.5611 37.9393C38.8425 38.2206 39.0005 38.6022 39.0005 39V42H42.0005V39C42.0005 37.8065 41.5264 36.6619 40.6825 35.818C39.8386 34.9741 38.694 34.5 37.5005 34.5ZM27.0005 27C27.0005 28.1867 27.3524 29.3467 28.0117 30.3334C28.671 31.3201 29.608 32.0892 30.7044 32.5433C31.8007 32.9974 33.0071 33.1162 34.171 32.8847C35.3349 32.6532 36.404 32.0818 37.2431 31.2426C38.0822 30.4035 38.6537 29.3344 38.8852 28.1705C39.1167 27.0067 38.9979 25.8003 38.5438 24.7039C38.0896 23.6075 37.3206 22.6705 36.3339 22.0112C35.3472 21.3519 34.1872 21 33.0005 21C31.4092 21 29.8831 21.6321 28.7578 22.7574C27.6326 23.8826 27.0005 25.4087 27.0005 27ZM36.0005 27C36.0005 27.5933 35.8245 28.1734 35.4949 28.6667C35.1653 29.1601 34.6967 29.5446 34.1485 29.7716C33.6004 29.9987 32.9972 30.0581 32.4152 29.9424C31.8333 29.8266 31.2987 29.5409 30.8792 29.1213C30.4596 28.7018 30.1739 28.1672 30.0581 27.5853C29.9424 27.0033 30.0018 26.4001 30.2288 25.852C30.4559 25.3038 30.8404 24.8352 31.3338 24.5056C31.8271 24.1759 32.4071 24 33.0005 24C33.7961 24 34.5592 24.3161 35.1218 24.8787C35.6844 25.4413 36.0005 26.2044 36.0005 27Z" fill="url(#paint0_linear_56825_2111)"/>
<defs>
<linearGradient id="paint0_linear_56825_2111" x1="21.0005" y1="0" x2="21.0005" y2="42" gradientUnits="userSpaceOnUse">
<stop stop-color="#1A1938"/>
<stop offset="1" stop-color="#22AAFF"/>
</linearGradient>
</defs>
</svg>
