<svg width="48" height="24" viewBox="0 0 48 24" fill="none" xmlns="http://www.w3.org/2000/svg">
<g clip-path="url(#clip0_55902_1465)">
<mask id="mask0_55902_1465" style="mask-type:luminance" maskUnits="userSpaceOnUse" x="0" y="-1" width="49" height="25">
<path d="M48.001 -0.046875H0.000976562V23.9531H48.001V-0.046875Z" fill="white"/>
</mask>
<g mask="url(#mask0_55902_1465)">
<path fill-rule="evenodd" clip-rule="evenodd" d="M6.50098 9.6373C6.50098 9.17225 6.12788 8.79523 5.66765 8.79523C5.20741 8.79523 4.83431 9.17225 4.83431 9.6373C4.83431 10.1024 5.20741 10.4794 5.66765 10.4794C6.12788 10.4794 6.50098 10.1024 6.50098 9.6373ZM7.33431 9.6373C7.33431 8.70717 6.58812 7.95312 5.66765 7.95312C4.74717 7.95312 4.00098 8.70717 4.00098 9.6373C4.00098 10.5675 4.74717 11.3215 5.66765 11.3215C6.58812 11.3215 7.33431 10.5675 7.33431 9.6373Z" fill="url(#paint0_linear_55902_1465)"/>
<path fill-rule="evenodd" clip-rule="evenodd" d="M9.41765 12.5846C9.87788 12.5846 10.251 12.9616 10.251 13.4267C10.251 13.8918 9.87788 14.2688 9.41765 14.2688C8.95741 14.2688 8.58431 13.8918 8.58431 13.4267C8.58431 12.9616 8.95741 12.5846 9.41765 12.5846ZM9.83431 11.4692C9.83431 11.6613 9.96591 11.8241 10.1374 11.9072C10.6975 12.1786 11.0843 12.757 11.0843 13.4267C11.0843 14.3569 10.3381 15.1109 9.41765 15.1109C8.49717 15.1109 7.75098 14.3569 7.75098 13.4267C7.75098 12.757 8.13779 12.1786 8.69795 11.9072C8.86938 11.8241 9.00098 11.6613 9.00098 11.4692V7.80534C9.00098 7.61322 8.86938 7.45037 8.69795 7.36731C8.13779 7.09589 7.75098 6.51748 7.75098 5.84778C7.75098 4.91762 8.49717 4.16357 9.41765 4.16357C10.3381 4.16357 11.0843 4.91762 11.0843 5.84778C11.0843 6.51748 10.6975 7.09589 10.1374 7.36731C9.96591 7.45037 9.83431 7.61322 9.83431 7.80534V11.4692ZM10.251 5.84778C10.251 5.3827 9.87788 5.00568 9.41765 5.00568C8.95741 5.00568 8.58431 5.3827 8.58431 5.84778C8.58431 6.31286 8.95741 6.68989 9.41765 6.68989C9.87788 6.68989 10.251 6.31286 10.251 5.84778Z" fill="url(#paint1_linear_55902_1465)"/>
<path fill-rule="evenodd" clip-rule="evenodd" d="M13.5841 14.2688C14.0444 14.2688 14.4175 14.6458 14.4175 15.1109C14.4175 15.576 14.0444 15.953 13.5841 15.953C13.1239 15.953 12.7508 15.576 12.7508 15.1109C12.7508 14.6458 13.1239 14.2688 13.5841 14.2688ZM14.0008 13.1534C14.0008 13.3455 14.1324 13.5083 14.3038 13.5914C14.864 13.8628 15.2508 14.4412 15.2508 15.1109C15.2508 16.0411 14.5046 16.7951 13.5841 16.7951C12.6637 16.7951 11.9175 16.0411 11.9175 15.1109C11.9175 14.4412 12.3043 13.8628 12.8644 13.5914C13.0359 13.5083 13.1675 13.3455 13.1675 13.1534V5.27897C13.1675 5.08685 13.0359 4.924 12.8644 4.84094C12.3043 4.56952 11.9175 3.99112 11.9175 3.32142C11.9175 2.39125 12.6637 1.63721 13.5841 1.63721C14.5046 1.63721 15.2508 2.39125 15.2508 3.32142C15.2508 3.99112 14.864 4.56952 14.3038 4.84094C14.1324 4.924 14.0008 5.08685 14.0008 5.27897V13.1534ZM14.4175 3.32142C14.4175 2.85633 14.0444 2.47931 13.5841 2.47931C13.1239 2.47931 12.7508 2.85633 12.7508 3.32142C12.7508 3.7865 13.1239 4.16352 13.5841 4.16352C14.0444 4.16352 14.4175 3.7865 14.4175 3.32142Z" fill="url(#paint2_linear_55902_1465)"/>
<path fill-rule="evenodd" clip-rule="evenodd" d="M17.7512 15.1108C18.2114 15.1108 18.5845 15.4878 18.5845 15.9529C18.5845 16.418 18.2114 16.795 17.7512 16.795C17.291 16.795 16.9179 16.418 16.9179 15.9529C16.9179 15.4878 17.291 15.1108 17.7512 15.1108ZM18.1679 13.9954C18.1679 14.1875 18.2995 14.3503 18.4709 14.4334C19.0311 14.7048 19.4179 15.2832 19.4179 15.9529C19.4179 16.8831 18.6717 17.6371 17.7512 17.6371C16.8307 17.6371 16.0845 16.8831 16.0845 15.9529C16.0845 15.2832 16.4713 14.7048 17.0315 14.4334C17.2029 14.3503 17.3345 14.1875 17.3345 13.9954V4.01579C17.3345 3.82367 17.2029 3.66082 17.0315 3.57776C16.4713 3.30634 16.0845 2.72794 16.0845 2.05824C16.0845 1.12808 16.8307 0.374023 17.7512 0.374023C18.6717 0.374023 19.4179 1.12808 19.4179 2.05824C19.4179 2.72794 19.0311 3.30634 18.4709 3.57776C18.2995 3.66082 18.1679 3.82367 18.1679 4.01579V13.9954ZM18.5845 2.05824C18.5845 1.59316 18.2114 1.21613 17.7512 1.21613C17.291 1.21613 16.9179 1.59316 16.9179 2.05824C16.9179 2.52332 17.291 2.90034 17.7512 2.90034C18.2114 2.90034 18.5845 2.52332 18.5845 2.05824Z" fill="url(#paint3_linear_55902_1465)"/>
<path fill-rule="evenodd" clip-rule="evenodd" d="M21.9177 17.6373C22.3779 17.6373 22.751 18.0144 22.751 18.4794C22.751 18.9445 22.3779 19.3215 21.9177 19.3215C21.4574 19.3215 21.0843 18.9445 21.0843 18.4794C21.0843 18.0144 21.4574 17.6373 21.9177 17.6373ZM22.3343 16.5219C22.3343 16.714 22.4659 16.8769 22.6374 16.9599C23.1975 17.2313 23.5843 17.8097 23.5843 18.4794C23.5843 19.4096 22.8381 20.1637 21.9177 20.1637C20.9972 20.1637 20.251 19.4096 20.251 18.4794C20.251 17.8097 20.6378 17.2313 21.198 16.9599C21.3694 16.8769 21.501 16.714 21.501 16.5219V3.59489C21.501 3.40277 21.3694 3.23992 21.198 3.15686C20.6378 2.88544 20.251 2.30704 20.251 1.63734C20.251 0.70717 20.9972 -0.046875 21.9177 -0.046875C22.8381 -0.046875 23.5843 0.70717 23.5843 1.63734C23.5843 2.30704 23.1975 2.88544 22.6374 3.15686C22.4659 3.23992 22.3343 3.40277 22.3343 3.59489V16.5219ZM22.751 1.63734C22.751 1.17225 22.3779 0.79523 21.9177 0.79523C21.4574 0.79523 21.0843 1.17225 21.0843 1.63734C21.0843 2.10242 21.4574 2.47944 21.9177 2.47944C22.3779 2.47944 22.751 2.10242 22.751 1.63734Z" fill="url(#paint4_linear_55902_1465)"/>
<path fill-rule="evenodd" clip-rule="evenodd" d="M26.0841 21.4266C26.5444 21.4266 26.9175 21.8036 26.9175 22.2687C26.9175 22.7338 26.5444 23.1108 26.0841 23.1108C25.6239 23.1108 25.2508 22.7338 25.2508 22.2687C25.2508 21.8036 25.6239 21.4266 26.0841 21.4266ZM26.5008 20.3112C26.5008 20.5033 26.6324 20.6661 26.8038 20.7492C27.364 21.0206 27.7508 21.599 27.7508 22.2687C27.7508 23.1989 27.0046 23.9529 26.0841 23.9529C25.1637 23.9529 24.4175 23.1989 24.4175 22.2687C24.4175 21.599 24.8043 21.0206 25.3644 20.7492C25.5359 20.6661 25.6675 20.5033 25.6675 20.3112V4.01579C25.6675 3.82367 25.5359 3.66082 25.3644 3.57776C24.8043 3.30634 24.4175 2.72794 24.4175 2.05824C24.4175 1.12808 25.1637 0.374023 26.0841 0.374023C27.0046 0.374023 27.7508 1.12808 27.7508 2.05824C27.7508 2.72794 27.364 3.30634 26.8038 3.57776C26.6324 3.66082 26.5008 3.82367 26.5008 4.01579V20.3112ZM26.9175 2.05824C26.9175 1.59316 26.5444 1.21613 26.0841 1.21613C25.6239 1.21613 25.2508 1.59316 25.2508 2.05824C25.2508 2.52332 25.6239 2.90034 26.0841 2.90034C26.5444 2.90034 26.9175 2.52332 26.9175 2.05824Z" fill="url(#paint5_linear_55902_1465)"/>
<path fill-rule="evenodd" clip-rule="evenodd" d="M30.2512 17.2162C30.7114 17.2162 31.0845 17.5932 31.0845 18.0583C31.0845 18.5234 30.7114 18.9004 30.2512 18.9004C29.791 18.9004 29.4179 18.5234 29.4179 18.0583C29.4179 17.5932 29.791 17.2162 30.2512 17.2162ZM30.6679 16.1007C30.6679 16.2929 30.7995 16.4557 30.9709 16.5388C31.5311 16.8102 31.9179 17.3886 31.9179 18.0583C31.9179 18.9885 31.1717 19.7425 30.2512 19.7425C29.3307 19.7425 28.5845 18.9885 28.5845 18.0583C28.5845 17.3886 28.9713 16.8102 29.5315 16.5388C29.7029 16.4557 29.8345 16.2929 29.8345 16.1007V5.27897C29.8345 5.08685 29.7029 4.924 29.5315 4.84094C28.9713 4.56952 28.5845 3.99112 28.5845 3.32142C28.5845 2.39125 29.3307 1.63721 30.2512 1.63721C31.1717 1.63721 31.9179 2.39125 31.9179 3.32142C31.9179 3.99112 31.5311 4.56952 30.9709 4.84094C30.7995 4.924 30.6679 5.08685 30.6679 5.27897V16.1007ZM31.0845 3.32142C31.0845 2.85633 30.7114 2.47931 30.2512 2.47931C29.791 2.47931 29.4179 2.85633 29.4179 3.32142C29.4179 3.7865 29.791 4.16352 30.2512 4.16352C30.7114 4.16352 31.0845 3.7865 31.0845 3.32142Z" fill="url(#paint6_linear_55902_1465)"/>
<path fill-rule="evenodd" clip-rule="evenodd" d="M34.4177 18.0586C34.8779 18.0586 35.251 18.4356 35.251 18.9007C35.251 19.3658 34.8779 19.7428 34.4177 19.7428C33.9574 19.7428 33.5843 19.3658 33.5843 18.9007C33.5843 18.4356 33.9574 18.0586 34.4177 18.0586ZM34.8343 16.9431C34.8343 17.1353 34.9659 17.2981 35.1374 17.3812C35.6975 17.6526 36.0843 18.231 36.0843 18.9007C36.0843 19.8309 35.3381 20.5849 34.4177 20.5849C33.4972 20.5849 32.751 19.8309 32.751 18.9007C32.751 18.231 33.1378 17.6526 33.698 17.3812C33.8694 17.2981 34.001 17.1353 34.001 16.9431V6.96354C34.001 6.77142 33.8694 6.60857 33.698 6.52551C33.1378 6.25409 32.751 5.67569 32.751 5.00599C32.751 4.07582 33.4972 3.32178 34.4177 3.32178C35.3381 3.32178 36.0843 4.07582 36.0843 5.00599C36.0843 5.67569 35.6975 6.25409 35.1374 6.52551C34.9659 6.60857 34.8343 6.77142 34.8343 6.96354V16.9431ZM35.251 5.00599C35.251 4.54091 34.8779 4.16388 34.4177 4.16388C33.9574 4.16388 33.5843 4.54091 33.5843 5.00599C33.5843 5.47107 33.9574 5.84809 34.4177 5.84809C34.8779 5.84809 35.251 5.47107 35.251 5.00599Z" fill="url(#paint7_linear_55902_1465)"/>
<path fill-rule="evenodd" clip-rule="evenodd" d="M38.5841 14.6898C39.0444 14.6898 39.4175 15.0668 39.4175 15.5319C39.4175 15.997 39.0444 16.374 38.5841 16.374C38.1239 16.374 37.7508 15.997 37.7508 15.5319C37.7508 15.0668 38.1239 14.6898 38.5841 14.6898ZM39.0008 13.5743C39.0008 13.7664 39.1324 13.9293 39.3038 14.0123C39.864 14.2838 40.2508 14.8622 40.2508 15.5319C40.2508 16.462 39.5046 17.2161 38.5841 17.2161C37.6637 17.2161 36.9175 16.462 36.9175 15.5319C36.9175 14.8622 37.3043 14.2838 37.8644 14.0123C38.0359 13.9293 38.1675 13.7664 38.1675 13.5743V9.48943C38.1675 9.29731 38.0359 9.13446 37.8644 9.0514C37.3043 8.77998 36.9175 8.20157 36.9175 7.53187C36.9175 6.60171 37.6637 5.84766 38.5841 5.84766C39.5046 5.84766 40.2508 6.60171 40.2508 7.53187C40.2508 8.20157 39.864 8.77998 39.3038 9.0514C39.1324 9.13446 39.0008 9.29731 39.0008 9.48943V13.5743ZM39.4175 7.53187C39.4175 7.06679 39.0444 6.68977 38.5841 6.68977C38.1239 6.68977 37.7508 7.06679 37.7508 7.53187C37.7508 7.99695 38.1239 8.37398 38.5841 8.37398C39.0444 8.37398 39.4175 7.99695 39.4175 7.53187Z" fill="url(#paint8_linear_55902_1465)"/>
<path fill-rule="evenodd" clip-rule="evenodd" d="M43.1675 11.7428C43.1675 11.2777 42.7944 10.9007 42.3341 10.9007C41.8739 10.9007 41.5008 11.2777 41.5008 11.7428C41.5008 12.2079 41.8739 12.5849 42.3341 12.5849C42.7944 12.5849 43.1675 12.2079 43.1675 11.7428ZM44.0008 11.7428C44.0008 10.8126 43.2546 10.0586 42.3341 10.0586C41.4137 10.0586 40.6675 10.8126 40.6675 11.7428C40.6675 12.673 41.4137 13.427 42.3341 13.427C43.2546 13.427 44.0008 12.673 44.0008 11.7428Z" fill="url(#paint9_linear_55902_1465)"/>
</g>
</g>
<defs>
<linearGradient id="paint0_linear_55902_1465" x1="5.66764" y1="7.95312" x2="5.66764" y2="11.3215" gradientUnits="userSpaceOnUse">
<stop stop-color="#1A1938"/>
<stop offset="1" stop-color="#22AAFF"/>
</linearGradient>
<linearGradient id="paint1_linear_55902_1465" x1="9.41763" y1="4.16357" x2="9.41763" y2="15.1109" gradientUnits="userSpaceOnUse">
<stop stop-color="#1A1938"/>
<stop offset="1" stop-color="#22AAFF"/>
</linearGradient>
<linearGradient id="paint2_linear_55902_1465" x1="13.5841" y1="1.63721" x2="13.5841" y2="16.7951" gradientUnits="userSpaceOnUse">
<stop stop-color="#1A1938"/>
<stop offset="1" stop-color="#22AAFF"/>
</linearGradient>
<linearGradient id="paint3_linear_55902_1465" x1="17.7512" y1="0.374023" x2="17.7512" y2="17.6371" gradientUnits="userSpaceOnUse">
<stop stop-color="#1A1938"/>
<stop offset="1" stop-color="#22AAFF"/>
</linearGradient>
<linearGradient id="paint4_linear_55902_1465" x1="21.9176" y1="-0.046875" x2="21.9176" y2="20.1637" gradientUnits="userSpaceOnUse">
<stop stop-color="#1A1938"/>
<stop offset="1" stop-color="#22AAFF"/>
</linearGradient>
<linearGradient id="paint5_linear_55902_1465" x1="26.0841" y1="0.374023" x2="26.0841" y2="23.9529" gradientUnits="userSpaceOnUse">
<stop stop-color="#1A1938"/>
<stop offset="1" stop-color="#22AAFF"/>
</linearGradient>
<linearGradient id="paint6_linear_55902_1465" x1="30.2512" y1="1.63721" x2="30.2512" y2="19.7425" gradientUnits="userSpaceOnUse">
<stop stop-color="#1A1938"/>
<stop offset="1" stop-color="#22AAFF"/>
</linearGradient>
<linearGradient id="paint7_linear_55902_1465" x1="34.4176" y1="3.32178" x2="34.4176" y2="20.5849" gradientUnits="userSpaceOnUse">
<stop stop-color="#1A1938"/>
<stop offset="1" stop-color="#22AAFF"/>
</linearGradient>
<linearGradient id="paint8_linear_55902_1465" x1="38.5841" y1="5.84766" x2="38.5841" y2="17.2161" gradientUnits="userSpaceOnUse">
<stop stop-color="#1A1938"/>
<stop offset="1" stop-color="#22AAFF"/>
</linearGradient>
<linearGradient id="paint9_linear_55902_1465" x1="42.3341" y1="10.0586" x2="42.3341" y2="13.427" gradientUnits="userSpaceOnUse">
<stop stop-color="#1A1938"/>
<stop offset="1" stop-color="#22AAFF"/>
</linearGradient>
<clipPath id="clip0_55902_1465">
<rect width="48" height="25" fill="white" transform="translate(0.000976562 -0.5)"/>
</clipPath>
</defs>
</svg>
