<svg width="42" height="30" viewBox="0 0 42 30" fill="none" xmlns="http://www.w3.org/2000/svg">
<path d="M26.42 18.6779L35.918 14.9259C38.044 14.0859 38.668 14.3279 39.66 15.0709C40.221 15.4909 40.426 16.0009 40.477 16.6309C40.583 17.9419 40.332 18.7919 39.491 19.3579C34.392 22.7869 28.957 25.3419 22.143 28.1429C18.831 29.5039 13.933 28.6059 9.533 27.0929L3.64 27.0699C3.3595 27.0704 3.08164 27.0157 2.82228 26.9088C2.56293 26.802 2.32716 26.6451 2.12845 26.4471C1.92973 26.2491 1.77195 26.0139 1.66412 25.755C1.55629 25.496 1.50052 25.2184 1.5 24.9379V18.9759C1.5 17.7899 2.455 16.8359 3.64 16.8359H9.966C12.373 13.8439 19.7 14.8409 24.886 15.0169C26.286 15.0649 26.81 16.5059 26.42 18.6779ZM26.42 18.6779C25.072 21.2649 21.645 20.5799 18.42 20.6969M28.969 9.37887L27.736 8.14587L26.502 9.37987H25.525M23.057 9.37887L24.291 8.14587L25.524 9.37887M19.657 4.30988H29.374L32.1 6.84488L29.374 9.37987H28.97M23.058 9.37987H19.658M19.657 9.37887L17.193 11.8429C16.293 12.7429 14.845 12.7429 13.946 11.8429L10.57 8.46987C9.67 7.56987 9.67 6.12188 10.57 5.22188L13.945 1.84687C14.845 0.946875 16.293 0.946875 17.192 1.84687L19.656 4.31087M15.353 6.84488C15.353 7.70888 14.653 8.40987 13.788 8.40987C12.924 8.40987 12.222 7.70988 12.222 6.84488C12.222 5.98088 12.922 5.27987 13.787 5.27987C14.651 5.27987 15.353 5.97987 15.353 6.84387V6.84488Z" stroke="url(#paint0_linear_56825_2106)" stroke-width="2" stroke-linecap="round" stroke-linejoin="round"/>
<defs>
<linearGradient id="paint0_linear_56825_2106" x1="20.9999" y1="1.17187" x2="20.9999" y2="28.8124" gradientUnits="userSpaceOnUse">
<stop stop-color="#1A1938"/>
<stop offset="1" stop-color="#22AAFF"/>
</linearGradient>
</defs>
</svg>
